<?xml version="1.0" encoding="utf-8"?>
<!-- Generator: Adobe Illustrator 16.0.0, SVG Export Plug-In . SVG Version: 6.00 Build 0)  -->
<!DOCTYPE svg PUBLIC "-//W3C//DTD SVG 1.1//EN" "http://www.w3.org/Graphics/SVG/1.1/DTD/svg11.dtd">
<svg version="1.1" id="_圖層_3" xmlns="http://www.w3.org/2000/svg" xmlns:xlink="http://www.w3.org/1999/xlink" x="0px" y="0px"
	 width="2551.18px" height="2551.18px" viewBox="0 0 2551.18 2551.18" enable-background="new 0 0 2551.18 2551.18"
	 xml:space="preserve">
<path fill="#AD9F79" d="M1493.267,455.219c76.094-18.854,138.384-36.7,138.384-36.7s-62.29-17.845-138.384-36.7
	c-87.879-21.886-154.883-92.256-173.064-180.808c-21.549-105.724-44.444-201.347-44.444-201.347s-22.896,95.623-44.444,201.347
	c-17.845,88.552-85.186,158.922-173.064,180.808c-76.094,18.855-138.384,36.7-138.384,36.7s62.29,17.846,138.384,36.7
	c87.879,21.886,154.882,92.257,173.064,180.809c21.549,105.724,44.444,201.347,44.444,201.347s22.896-95.623,44.444-201.347
	C1338.047,547.475,1405.388,477.104,1493.267,455.219z"/>
<path fill="#AD9F79" d="M1493.267,1312.122c76.094-18.855,138.384-36.7,138.384-36.7s-62.29-17.846-138.384-36.7
	c-87.879-21.886-154.883-92.257-173.064-180.809c-21.549-105.724-44.444-201.347-44.444-201.347s-22.896,95.623-44.444,201.347
	c-17.845,88.553-85.186,158.923-173.064,180.809c-76.094,18.854-138.384,36.7-138.384,36.7s62.29,17.845,138.384,36.7
	c87.879,21.886,154.882,92.256,173.064,180.808c21.549,105.725,44.444,201.348,44.444,201.348s22.896-95.623,44.444-201.348
	C1338.047,1404.378,1405.388,1334.008,1493.267,1312.122z"/>
<path fill="#AD9F79" d="M1493.267,2169.024c76.094-18.855,138.384-36.7,138.384-36.7s-62.29-17.845-138.384-36.7
	c-87.879-21.886-154.883-92.256-173.064-180.809c-21.549-105.724-44.444-201.347-44.444-201.347s-22.896,95.623-44.444,201.347
	c-17.845,88.553-85.186,158.923-173.064,180.809c-76.094,18.855-138.384,36.7-138.384,36.7s62.29,17.845,138.384,36.7
	c87.879,21.886,154.882,92.256,173.064,180.809c21.549,105.724,44.444,201.347,44.444,201.347s22.896-95.622,44.444-201.347
	C1338.047,2261.28,1405.388,2190.91,1493.267,2169.024z"/>
</svg>
