<?xml version="1.0" encoding="utf-8"?>
<!-- Generator: Adobe Illustrator 16.0.0, SVG Export Plug-In . SVG Version: 6.00 Build 0)  -->
<!DOCTYPE svg PUBLIC "-//W3C//DTD SVG 1.1//EN" "http://www.w3.org/Graphics/SVG/1.1/DTD/svg11.dtd">
<svg version="1.1" id="圖層_1" xmlns="http://www.w3.org/2000/svg" xmlns:xlink="http://www.w3.org/1999/xlink" x="0px" y="0px"
	 width="368.383px" height="6.625px" viewBox="0 0 368.383 6.625" enable-background="new 0 0 368.383 6.625" xml:space="preserve">
<path fill="#AD9F79" d="M358.348,3.31c-1.688-0.012-3.376-0.024-5.063-0.037c-4.541-0.032-9.082-0.063-13.622-0.098
	c-6.613-0.047-13.229-0.097-19.846-0.144c-7.912-0.057-15.824-0.112-23.732-0.17c-8.433-0.061-16.859-0.121-25.289-0.182
	c-8.169-0.059-16.338-0.117-24.507-0.176c-3.293-0.023-6.588-0.047-9.881-0.072c-2.021-0.014-7.467,1.02-8.658-1.084
	c-0.188,0.555-0.747,0.957-1.331,0.961s-1.147-0.395-1.345-0.943c-0.47,0.688-1.32,1.099-2.151,1.029
	c-1.348-0.104-2.276-1.488-3.116-2.396l-1.905,1.92c-0.095,0.094-0.188,0.188-0.304,0.26c-0.87,0.535-3.052,0.101-4.042,0.092
	c-6.575-0.047-13.097,0.011-19.631-0.93c-1.494-0.215-4.854-0.961-4.854-0.961c-0.162,1.133-2.977,2.299-4.694,2.932
	c1.721,0.634,4.532,1.798,4.694,2.933c0,0,3.36-0.748,4.854-0.963c6.534-0.938,13.056-0.881,19.631-0.929
	c0.99-0.008,3.172-0.444,4.042,0.091c0.113,0.069,0.209,0.166,0.304,0.262l1.905,1.92c0.84-0.908,1.771-2.291,3.116-2.398
	c0.831-0.064,1.685,0.344,2.151,1.031c0.194-0.549,0.761-0.947,1.345-0.943s1.144,0.408,1.331,0.959
	c1.191-2.102,6.641-1.068,8.658-1.084c3.293-0.021,6.588-0.047,9.881-0.07c8.169-0.059,16.338-0.114,24.507-0.176
	c8.43-0.061,16.856-0.121,25.289-0.182c7.908-0.059,15.82-0.113,23.732-0.17c6.614-0.047,13.229-0.096,19.846-0.145
	c4.54-0.029,9.081-0.063,13.622-0.099c1.688-0.012,3.375-0.022,5.063-0.035c-0.088-0.002-0.176-0.002-0.264-0.002
	C358.172,3.31,358.26,3.31,358.348,3.31 M196.954,3.313c-0.857,0-1.646,0.285-2.45,0.541c-0.88,0.281-1.765,0.556-2.635,0.855
	c-0.579,0.196-1.307,0.48-1.934,0.321c-0.281-0.071-0.483-0.227-0.545-0.521c-0.006-0.021,0.001-0.371,0.021-0.363
	c-0.834-0.293-1.688-0.557-2.532-0.836c0.002,0,0.004,0,0.006-0.002c-0.002,0-0.004,0-0.006-0.002
	c0.845-0.277,1.698-0.543,2.532-0.834c-0.021,0.008-0.026-0.342-0.021-0.363c0.062-0.295,0.264-0.447,0.545-0.52
	c0.627-0.162,1.354,0.123,1.934,0.32c0.87,0.301,1.755,0.574,2.635,0.854c0.804,0.256,1.593,0.541,2.45,0.541
	c-0.014,0-0.021,0.002-0.032,0.002C196.933,3.312,196.943,3.313,196.954,3.313"/>
<path fill="#AD9F79" d="M10.298,3.312c-0.088,0-0.175,0-0.263,0.002c1.687,0.013,3.375,0.023,5.063,0.035
	c4.54,0.033,9.081,0.066,13.622,0.099c6.615,0.047,13.23,0.098,19.846,0.145c7.911,0.057,15.823,0.111,23.734,0.17
	c8.43,0.061,16.859,0.121,25.289,0.182c8.169,0.062,16.338,0.117,24.507,0.176c3.293,0.023,6.585,0.05,9.878,0.07
	c2.021,0.016,7.468-1.018,8.662,1.084c0.187-0.551,0.747-0.955,1.33-0.959c0.584-0.004,1.146,0.396,1.343,0.943
	c0.47-0.688,1.322-1.098,2.154-1.031c1.344,0.107,2.273,1.49,3.116,2.398l1.903-1.922c0.097-0.094,0.189-0.188,0.306-0.26
	c0.866-0.535,3.051-0.099,4.042-0.091c6.572,0.048,13.096-0.01,19.631,0.929c1.493,0.215,4.854,0.963,4.854,0.963
	c0.163-1.135,2.979-2.301,4.697-2.933c-1.72-0.633-4.534-1.799-4.697-2.932c0,0-3.358,0.746-4.854,0.961
	c-6.535,0.938-13.059,0.883-19.631,0.93c-0.991,0.007-3.176,0.443-4.042-0.092c-0.114-0.069-0.209-0.166-0.306-0.26l-1.903-1.92
	c-0.843,0.907-1.772,2.291-3.116,2.396c-0.832,0.066-1.687-0.342-2.154-1.029c-0.194,0.552-0.759,0.947-1.343,0.943
	c-0.583-0.004-1.146-0.408-1.33-0.961c-1.194,2.104-6.642,1.07-8.662,1.084c-3.293,0.025-6.585,0.049-9.878,0.072
	c-8.169,0.059-16.338,0.115-24.507,0.176C89.159,2.74,80.73,2.801,72.3,2.861c-7.911,0.058-15.823,0.113-23.734,0.17
	C41.952,3.078,35.337,3.128,28.72,3.175c-4.541,0.033-9.082,0.063-13.622,0.098c-1.688,0.013-3.376,0.025-5.063,0.037
	C10.124,3.31,10.21,3.31,10.298,3.312 M171.46,3.312c-0.014,0-0.021-0.002-0.032-0.002c0.858,0,1.646-0.284,2.45-0.541
	c0.88-0.282,1.762-0.557,2.636-0.854c0.578-0.197,1.303-0.482,1.93-0.32c0.282,0.07,0.487,0.225,0.545,0.52
	c0.008,0.021-0.001,0.371-0.021,0.363c0.835,0.291,1.688,0.557,2.532,0.834c-0.002,0.002-0.004,0.002-0.006,0.002
	c0.002,0.002,0.004,0.002,0.006,0.002c-0.846,0.279-1.697,0.545-2.532,0.834c0.02-0.006,0.026,0.344,0.021,0.365
	c-0.058,0.295-0.263,0.447-0.545,0.52c-0.627,0.162-1.352-0.123-1.93-0.319c-0.874-0.302-1.756-0.574-2.636-0.854
	c-0.807-0.259-1.592-0.541-2.45-0.541C171.439,3.313,171.448,3.312,171.46,3.312"/>
</svg>
