<?xml version="1.0" encoding="utf-8"?>
<!-- Generator: Adobe Illustrator 16.0.0, SVG Export Plug-In . SVG Version: 6.00 Build 0)  -->
<!DOCTYPE svg PUBLIC "-//W3C//DTD SVG 1.1//EN" "http://www.w3.org/Graphics/SVG/1.1/DTD/svg11.dtd">
<svg version="1.1" id="圖層_1" xmlns="http://www.w3.org/2000/svg" xmlns:xlink="http://www.w3.org/1999/xlink" x="0px" y="0px"
	 width="2551.18px" height="2551.18px" viewBox="0 0 2551.18 2551.18" enable-background="new 0 0 2551.18 2551.18"
	 xml:space="preserve">
<g id="_圖層_3_拷貝">
	<g>
		<path fill="#FFFFFF" d="M1275.59,693.338c-117.568,0-213.232,95.664-213.232,213.231c0,117.568,95.664,213.231,213.232,213.231
			c117.567,0,213.231-95.663,213.231-213.231C1488.822,789.002,1393.157,693.338,1275.59,693.338z M1275.59,985.246
			c-43.362,0-79.124-35.315-79.124-79.124s35.315-79.123,79.124-79.123s79.123,35.314,79.123,79.123
			S1319.399,985.246,1275.59,985.246z"/>
		<path fill="#FFFFFF" d="M2206.299,1131.424c-109.969-60.796-227.09-91.641-347.787-91.641
			c-238.265,0-438.086,83.147-582.922,241.395c-144.39-158.247-344.211-241.395-582.923-241.395
			c-120.697,0-237.818,30.845-347.786,91.641c-26.822,14.752-40.232,45.597-32.634,75.101c7.6,29.504,33.975,50.514,64.819,50.514
			c242.735,0.895,506.928,216.808,673.222,549.396c39.785,80.018,73.759,165.399,100.581,253.911
			c26.375,87.617,46.044,180.151,57.666,275.368c4.023,33.527,32.633,59.008,66.607,59.008c33.974,0,62.584-25.034,66.606-59.008
			c11.623-94.77,31.292-187.304,57.667-275.368c26.821-88.512,60.795-173.894,100.58-253.911
			c166.295-332.588,430.487-548.501,673.223-549.396c30.397,0,57.219-21.01,64.818-50.514s-5.811-60.349-32.633-75.101H2206.299z
			 M1381.088,1746.532c-41.574,82.7-76.889,171.211-105.052,262.404c-28.162-91.193-63.478-179.258-105.051-262.404
			c-138.132-275.815-334.376-476.978-544.031-568.618c21.904-2.682,44.256-4.022,66.606-4.022
			c228.431,0,406.348,84.935,528.386,253.017c25.033,34.868,83.146,34.868,108.181,0
			c122.484-167.635,299.954-253.017,528.385-253.017c22.352,0,44.703,1.341,66.607,4.022
			C1715.017,1269.555,1518.772,1470.27,1381.088,1746.532z"/>
		<path fill="#FFFFFF" d="M831.245,648.636h38.444c13.857,0,26.821-4.023,37.104-11.176c3.576,0.447,7.152,0.894,10.729,0.894
			h51.854c3.13,0,6.259,0,8.94-0.446c10.729,7.152,23.246,11.175,37.104,11.175h38.444c20.563,0,38.892-9.834,51.408-24.586
			c27.716,20.116,61.242,30.397,95.217,30.397c33.974,0,67.054-10.729,94.322-31.292c12.069,15.199,30.845,25.48,52.302,25.48
			h39.339c16.987,0,32.633-6.258,44.702-16.986c12.07,10.729,27.716,16.986,44.256,16.986h42.021c8.94,0,17.435-1.788,25.033-5.364
			c8.047,3.576,16.54,5.364,25.928,5.364h158.247c37.104,0,67.055-29.95,67.055-67.054v-38.444
			c0-37.103-29.951-67.054-67.055-67.054h-51.408v-44.703h42.021c37.103,0,67.054-29.95,67.054-67.054v-38.444
			c0-37.103-29.951-67.054-67.054-67.054h-42.021v-13.411h50.515c37.103,0,67.054-29.95,67.054-67.054v-38.444
			c0-37.103-29.951-67.054-67.054-67.054h-156.906c-21.458,0-40.232,10.281-52.749,25.927
			c-26.375-16.54-57.667-25.927-88.512-25.927h-80.018c-21.01,0-39.785,9.834-51.855,25.033
			c-27.715-21.01-61.242-30.845-94.322-30.845s-67.501,9.388-95.217,29.951c-12.517-14.751-30.397-24.139-50.961-24.139h-58.113
			c-21.457,0-40.68,10.281-53.196,26.375c-12.517-16.093-31.738-26.375-53.196-26.375h-58.113
			c-37.103,0-67.054,29.951-67.054,67.054v441.215c0,37.104,29.951,67.055,67.054,67.055H831.245z"/>
	</g>
</g>
<g id="_圖層_3_拷貝_2">
	<g>
		<circle fill="#AD9F79" cx="1275.59" cy="906.569" r="146.178"/>
		<path fill="#AD9F79" d="M1858.512,1106.837c-230.219,0-437.191,80.912-582.922,280.286
			c-145.284-199.374-352.258-280.286-582.923-280.286c-112.204,0-218.596,29.951-315.601,83.147
			c270.898,0.894,554.313,228.431,733.123,586.499c40.68,81.806,76.441,170.316,105.051,264.64
			c29.058,96.11,48.727,192.221,60.35,286.544c11.622-94.323,30.845-189.986,60.348-286.544
			c28.61-94.323,63.926-182.834,105.052-264.64c178.811-357.621,462.226-585.158,733.123-586.499
			C2077.555,1136.788,1970.716,1106.838,1858.512,1106.837L1858.512,1106.837z"/>
	</g>
	<g>
		<path fill="#AD9F79" d="M1015.42,221.278h-2.235L969.376,571.3h-51.854l-46.938-350.021h-1.342v360.303h-38.444V139.919h58.114
			l53.643,377.291h1.342l51.854-377.291h58.113v441.662h-38.444V221.278L1015.42,221.278z"/>
		<path fill="#AD9F79" d="M1200.042,134.108c45.149,0,87.17,23.246,87.17,106.392v247.653c0,73.312-42.021,99.239-87.17,99.239
			s-90.747-25.928-90.747-99.239V240.5C1109.295,157.354,1153.551,134.108,1200.042,134.108z M1200.042,548.948
			c24.587,0,47.832-15.199,47.832-68.395V246.312c0-59.455-21.011-73.759-47.832-73.759s-50.961,14.752-50.961,73.759v234.242
			C1149.081,534.196,1175.903,548.948,1200.042,548.948z"/>
		<path fill="#AD9F79" d="M1516.984,581.581h-42.021l-33.527-197.138c-8.046,1.341-16.986,1.788-25.48,1.788h-29.503v195.35h-39.339
			V139.919h80.018c37.104,0,87.617,23.245,87.617,75.547v92.981c0,30.398-15.198,51.855-38.443,63.925L1516.984,581.581z
			 M1419.531,347.787c26.822,0,56.773-8.94,56.773-50.514v-71.971c0-42.021-25.034-46.938-56.773-46.938h-33.079v169.87h33.079
			V347.787z"/>
		<path fill="#AD9F79" d="M1716.805,364.327h-109.074v178.81h118.462v38.444h-158.248V139.919h156.906v38.444h-117.567v147.519
			h109.074v38.444H1716.805z"/>
	</g>
</g>
</svg>
