<?xml version="1.0" encoding="utf-8"?>
<!-- Generator: Adobe Illustrator 16.0.0, SVG Export Plug-In . SVG Version: 6.00 Build 0)  -->
<!DOCTYPE svg PUBLIC "-//W3C//DTD SVG 1.1//EN" "http://www.w3.org/Graphics/SVG/1.1/DTD/svg11.dtd">
<svg version="1.1" id="_圖層_3" xmlns="http://www.w3.org/2000/svg" xmlns:xlink="http://www.w3.org/1999/xlink" x="0px" y="0px"
	 width="2551.18px" height="2551.18px" viewBox="0 0 2551.18 2551.18" enable-background="new 0 0 2551.18 2551.18"
	 xml:space="preserve">
<path fill="#AD9F79" d="M1938.774,1386.89c231.832-57.445,421.605-111.813,421.605-111.813s-189.773-54.368-421.605-111.813
	c-267.735-66.677-471.871-281.07-527.265-550.857C1345.858,290.303,1276.103-1.026,1276.103-1.026s-69.755,291.329-135.406,613.432
	c-54.368,269.787-259.529,484.181-527.265,550.857c-231.832,57.445-421.605,111.813-421.605,111.813s189.773,54.367,421.605,111.813
	c267.735,66.678,471.871,281.071,527.265,550.857c65.651,322.104,135.406,613.433,135.406,613.433s69.755-291.329,135.406-613.433
	C1465.877,1667.961,1671.038,1453.567,1938.774,1386.89L1938.774,1386.89z"/>
</svg>
