<?xml version="1.0" encoding="utf-8"?>
<!-- Generator: Adobe Illustrator 26.5.1, SVG Export Plug-In . SVG Version: 6.00 Build 0)  -->
<svg version="1.1" id="圖層_1" xmlns="http://www.w3.org/2000/svg" xmlns:xlink="http://www.w3.org/1999/xlink" x="0px" y="0px"
	 viewBox="0 0 52.6 24.1" style="enable-background:new 0 0 52.6 24.1;" xml:space="preserve">
<style type="text/css">
	.st0{fill:#FFFFFF;}
	.st1{fill:#AD9F79;}
</style>
<g id="_圖層_4">
	<path class="st0" d="M52.6,10.2H29.7c0,0,0-0.1,0-0.1c0.8-1.3,1.5-2.2,1.6-2.4c0.1-0.1,0.1-0.2,0.1-0.3c0-0.3-0.2-0.5-0.5-0.5l0,0
		c-0.1,0-0.2,0-0.3,0.1c0,0-1,0.8-2.3,1.6c-0.1,0-0.1,0.1-0.2,0.1c-0.1,0-0.3-0.1-0.4-0.3c-0.7-4.1-1-7.8-1-7.9
		c0-0.3-0.2-0.5-0.5-0.5s-0.5,0.2-0.5,0.5c0,0-0.3,3.8-1,7.9c0,0.2-0.2,0.3-0.4,0.3c-0.1,0-0.1,0-0.2-0.1C22.9,7.7,22,7,22,7
		c-0.1-0.1-0.2-0.1-0.3-0.1c-0.1,0-0.3,0.1-0.4,0.2c-0.2,0.2-0.2,0.5,0,0.7c0,0,0.8,1,1.6,2.4c0,0,0,0.1,0,0.1H0v3.7h22.9
		c0,0,0,0.1,0,0.1c-0.9,1.4-1.6,2.4-1.6,2.4c-0.1,0.2-0.1,0.5,0,0.7c0.1,0.1,0.2,0.1,0.4,0.1c0.1,0,0.2,0,0.3-0.1c0,0,1-0.7,2.3-1.6
		c0.1,0,0.1-0.1,0.2-0.1c0.1,0,0.3,0.1,0.4,0.3c0.7,4.1,1,7.8,1,7.9c0,0.3,0.2,0.5,0.5,0.5s0.5-0.2,0.5-0.5c0,0,0.3-3.8,1-7.9
		c0-0.2,0.2-0.3,0.4-0.3c0.1,0,0.1,0,0.2,0.1c1.4,0.8,2.3,1.6,2.3,1.6c0.1,0.1,0.2,0.1,0.3,0.1c0.1,0,0.3,0,0.4-0.1
		c0.2-0.2,0.2-0.5,0-0.7c0,0-0.8-1-1.6-2.4c0,0,0-0.1,0-0.1h22.9L52.6,10.2L52.6,10.2z M24,15.1c-0.2,0.1-0.3,0.2-0.5,0.3
		C23.7,15.3,23.8,15.2,24,15.1c0.1,0,0.1-0.1,0.2-0.1C24.1,15,24.1,15.1,24,15.1z M28.6,15.1c-0.1,0-0.1-0.1-0.2-0.1
		C28.5,15,28.5,15.1,28.6,15.1c0.2,0.1,0.3,0.2,0.5,0.3C28.9,15.3,28.8,15.2,28.6,15.1z M23.3,14.2c0.1-0.1,0.1-0.2,0.1-0.4l0,0
		C23.4,14,23.4,14.1,23.3,14.2L23.3,14.2z"/>
</g>
<g id="_圖層_3_拷貝_2">
	<path class="st1" d="M29.9,13c3.3-0.7,6.3-0.9,6.3-0.9s-3-0.2-6.3-0.9c-0.6-0.1-0.9-0.8-0.6-1.3C30.2,8.4,31,7.4,31,7.4
		S30,8.1,28.6,9c-0.5,0.3-1.2,0-1.3-0.6c-0.7-4.1-1-7.9-1-7.9s-0.3,3.8-1,7.9C25.2,9,24.5,9.3,24,9c-1.4-0.9-2.4-1.6-2.4-1.6
		s0.8,1,1.7,2.5c0.3,0.5,0,1.2-0.6,1.3c-3.3,0.7-6.3,0.9-6.3,0.9s3,0.2,6.3,0.9c0.6,0.1,0.9,0.8,0.6,1.3c-0.9,1.4-1.7,2.5-1.7,2.5
		s1-0.7,2.4-1.6c0.5-0.3,1.2,0,1.3,0.6c0.7,4.1,1,7.9,1,7.9s0.3-3.8,1-7.9c0.1-0.6,0.8-0.9,1.3-0.6C30,16,31,16.7,31,16.7
		s-0.8-1-1.7-2.5C29,13.7,29.3,13.1,29.9,13z"/>
	<circle class="st1" cx="7" cy="12" r="1.3"/>
	<circle class="st1" cx="45.6" cy="12" r="1.3"/>
</g>
</svg>
