<?xml version="1.0" encoding="utf-8"?>
<!-- Generator: Adobe Illustrator 26.5.1, SVG Export Plug-In . SVG Version: 6.00 Build 0)  -->
<svg version="1.1" id="_圖層_3" xmlns="http://www.w3.org/2000/svg" xmlns:xlink="http://www.w3.org/1999/xlink" x="0px" y="0px"
	 viewBox="0 0 160.9 22.7" style="enable-background:new 0 0 160.9 22.7;" xml:space="preserve">
<style type="text/css">
	.st0{fill:#AD9F79;stroke:#AA9D78;stroke-width:0.5;stroke-linecap:round;stroke-linejoin:round;stroke-miterlimit:10;}
</style>
<path class="st0" d="M75,5.6h-7.5c-0.5,1.2-1.7,2.3-2.5,2.7c-0.2,0.1-0.3-0.1-0.2-0.3c0.6-0.8,1-1.5,1.3-2.4h-8.7
	c-0.2,0-0.3-0.1-0.3-0.3s0.1-0.3,0.3-0.3h11.6c1.1-1,1.8-2.2,2.4-3.6c0.3-0.7,1.4-0.3,1.2,0.5C72,3,70.9,4.2,69.7,4.9H75
	c0.5,0,0.8-0.2,1-0.2c0.3,0,0.5,0.2,0.5,0.5S76.3,5.8,76,5.8C75.8,5.8,75.4,5.6,75,5.6L75,5.6z M60.2,8.3c0-0.4,0.2-0.6,0.6-0.6
	s0.6,0.2,0.6,0.6v0.2h10.9V8.2c0-0.4,0.2-0.6,0.6-0.6s0.6,0.2,0.6,0.6v12.9c0,0.4-0.2,0.6-0.6,0.6s-0.6-0.2-0.6-0.6v-1.5H61.4v1.6
	c0,0.4-0.2,0.6-0.6,0.6s-0.6-0.2-0.6-0.6V8.3z M72.3,11.9V9.1H61.4v2.8H72.3z M72.3,15.3v-2.9H61.4v2.9H72.3z M72.3,19v-3H61.4v3
	H72.3z M61.7,1.1c1,0.4,2.5,1.3,3,2.5C65,4.5,64,5,63.5,4.2c-0.6-1.1-1.1-1.9-1.9-2.7C61.4,1.3,61.6,1.1,61.7,1.1L61.7,1.1z"/>
<path class="st0" d="M84.5,21.5c2.9-0.8,5.4-2,7.6-4c0.7-0.6,1.6,0.2,0.9,0.9c-2,2-5.5,3.1-8.4,3.4C84.3,21.8,84.3,21.5,84.5,21.5
	L84.5,21.5z M85.5,2.6h16.8c0.5,0,0.8-0.2,1.1-0.2s0.5,0.2,0.5,0.5s-0.2,0.5-0.5,0.5s-0.6-0.2-1-0.2h-6.9c-0.5,1.1-1.5,2.1-2.4,2.5
	c-0.2,0.1-0.4-0.1-0.3-0.3c0.5-0.7,0.9-1.5,1.2-2.2h-8.4c-0.2,0-0.3-0.1-0.3-0.3C85.2,2.7,85.3,2.6,85.5,2.6L85.5,2.6z M87.8,6
	c0-0.4,0.2-0.6,0.6-0.6s0.6,0.2,0.6,0.6v0.2h10.6V6c0-0.4,0.2-0.6,0.6-0.6s0.6,0.2,0.6,0.6v11.1c0,0.4-0.2,0.6-0.6,0.6
	s-0.6-0.2-0.6-0.6v-0.5H89.1v0.7c0,0.4-0.2,0.6-0.6,0.6s-0.6-0.2-0.6-0.6C87.8,17.3,87.8,6,87.8,6z M99.6,9.4V6.8H89.1v2.7H99.6z
	 M99.6,12.7V10H89.1v2.6H99.6z M99.6,16v-2.7H89.1V16H99.6z M95.8,17.4c2.5,0.3,6.2,1.8,7.7,3.1c0.7,0.7-0.1,1.6-0.8,1.1
	c-2-1.5-4.6-2.9-7-3.8C95.5,17.7,95.6,17.4,95.8,17.4L95.8,17.4z"/>
</svg>
