<?xml version="1.0" encoding="utf-8"?>
<!-- Generator: Adobe Illustrator 26.5.1, SVG Export Plug-In . SVG Version: 6.00 Build 0)  -->
<svg version="1.1" id="_圖層_3_拷貝" xmlns="http://www.w3.org/2000/svg" xmlns:xlink="http://www.w3.org/1999/xlink" x="0px"
	 y="0px" viewBox="0 0 160.9 22.7" style="enable-background:new 0 0 160.9 22.7;" xml:space="preserve">
<style type="text/css">
	.st0{fill:#AD9F79;stroke:#AA9D78;stroke-width:0.5;stroke-linecap:round;stroke-linejoin:round;stroke-miterlimit:10;}
</style>
<path class="st0" d="M29.2,6.8c1.7,0.4,3.2,1.4,4,2.7c0.5,0.9-0.5,1.5-1.1,0.8c-0.9-1.1-2-2.3-3.1-3.1C28.9,7,29,6.7,29.2,6.8
	L29.2,6.8z M29.4,19.7c2-1.9,3.5-4.4,4.3-7.4c0.1-0.2,0.4-0.2,0.4,0.1c0,3.4-1.7,6.7-3.9,8.4C29.5,21.3,28.7,20.3,29.4,19.7z
	 M30.8,1.4c1.7,0.4,3.2,1.4,4,2.7c0.5,0.9-0.5,1.5-1.1,0.8c-0.8-1.1-2-2.3-3.1-3.1C30.5,1.7,30.6,1.4,30.8,1.4L30.8,1.4z M34.7,8.6
	h6.6v-3c0-0.4,0.2-0.6,0.6-0.6s0.6,0.3,0.6,0.6v3h5.1c0.5,0,0.8-0.2,1.1-0.2s0.5,0.2,0.5,0.5S49,9.4,48.7,9.4s-0.6-0.2-1.1-0.2h-5.1
	v4.1h3.3V13c0-0.4,0.2-0.6,0.6-0.6S47,12.7,47,13v8.1c0,0.3-0.2,0.6-0.6,0.6s-0.6-0.2-0.6-0.6v-1.4H38v1.5c0,0.3-0.2,0.6-0.6,0.6
	s-0.6-0.2-0.6-0.6v-8.3c0-0.4,0.3-0.6,0.6-0.6s0.6,0.3,0.6,0.6v0.3h3.2v-4h-6.6c-0.2,0-0.3-0.1-0.3-0.4C34.3,8.7,34.5,8.6,34.7,8.6
	L34.7,8.6z M46.7,1.6c0.8-0.4,1.2,0.7,0.5,1.1C44,4.4,39.9,4.9,36.3,4.9c-0.2,0-0.2-0.4,0-0.4C39.8,4,43.6,3,46.7,1.6L46.7,1.6z
	 M45.8,19.1v-5.2H38v5.2H45.8z"/>
<path class="st0" d="M56.8,5.3H62V4.5c0-0.3,0.2-0.6,0.6-0.6s0.6,0.2,0.6,0.6v0.8h3.6c0.4,0,0.7-0.2,1-0.2s0.5,0.2,0.5,0.5
	s-0.2,0.5-0.5,0.5s-0.6-0.2-1-0.2h-3.6V8h2.7V7.7c0-0.3,0.2-0.6,0.6-0.6S67,7.4,67,7.7v6.4c0,0.3-0.2,0.6-0.6,0.6s-0.6-0.2-0.6-0.6
	v-0.3h-2.7V16H66c0.4,0,0.7-0.2,1-0.2s0.5,0.2,0.5,0.5c0,0.3-0.2,0.5-0.5,0.5s-0.6-0.2-1-0.2h-2.8v2.2c1.5-0.3,3-0.7,4.3-1.2
	c0.2-0.1,0.4,0.2,0.2,0.3c-2.6,1.9-6.9,2.7-10.3,2.7c-0.8,0-0.8-1.1,0-1.2c1.6-0.1,3.2-0.2,4.7-0.5v-2.4h-3.9
	c-0.2,0-0.3-0.1-0.3-0.3c0-0.2,0.1-0.2,0.3-0.2H62v-2.1h-2.7v0.6c0,0.3-0.2,0.6-0.5,0.6s-0.6-0.2-0.6-0.6V7.7c0-0.3,0.2-0.6,0.6-0.6
	s0.5,0.2,0.5,0.6V8H62V6h-5.2c-0.2,0-0.3-0.1-0.3-0.3S56.7,5.3,56.8,5.3L56.8,5.3z M66.6,1.2C67.3,1,67.8,1.9,67,2.3
	c-2.2,1-6.5,1.5-9.5,1.5c-0.2,0-0.2-0.4,0-0.4C60.6,2.9,63.6,2.3,66.6,1.2L66.6,1.2z M62,10.6v-2h-2.7v2H62z M62,13.2v-2h-2.7v2H62z
	 M65.9,10.6v-2h-2.7v2H65.9z M65.9,13.2v-2h-2.7v2H65.9z M65.5,21.3c3.8-3.2,4.4-7.8,4.7-12.9L70.3,7h-2C68.1,7,68,6.8,68,6.7
	s0.1-0.3,0.3-0.3h2l0.2-4.9c0-0.8,1.2-0.8,1.2,0l-0.2,4.9h2.9V6c0-0.8,1.2-0.8,1.2,0l-0.3,10.9c-0.1,2.9-1.5,4.9-5.2,4.1
	c-0.2-0.1-0.2-0.4,0-0.4c3,0,3.9-1.3,4-4.1L74.3,7h-2.9l-0.1,2c-0.2,5-1.1,10-5.6,12.7C65.5,21.8,65.3,21.5,65.5,21.3L65.5,21.3z"/>
<path class="st0" d="M84.2,6.3H87V1.7c0-0.3,0.2-0.6,0.6-0.6S88,1.3,88,1.7v4.7h1.2c0.4,0,0.7-0.2,1-0.2s0.5,0.2,0.5,0.5
	s-0.2,0.5-0.5,0.5S89.6,7,89.2,7H88v14.5c0,0.3-0.2,0.5-0.5,0.5s-0.6-0.2-0.6-0.5v-9.7c-0.6,2.1-1.4,4.2-2.7,5.8
	c-0.1,0.1-0.4,0-0.3-0.2c1.7-3.6,2.1-6.5,2.7-10.4h-2.5c-0.2,0-0.3-0.1-0.3-0.3S84,6.3,84.2,6.3L84.2,6.3z M88.8,8.5
	c0.9,1.1,1.5,2.3,1.6,3.5c0,0.7-1,0.9-1.1,0.1c-0.2-1.2-0.3-2-0.7-3.4C88.4,8.4,88.6,8.3,88.8,8.5L88.8,8.5z M91.2,17.8V2.3
	c0-0.3,0.2-0.6,0.5-0.6s0.6,0.2,0.6,0.6v0.3h2.8V2.3c0-0.3,0.2-0.6,0.5-0.6s0.6,0.2,0.6,0.6v9.3c0,0.3-0.2,0.6-0.6,0.6
	s-0.5-0.2-0.5-0.6v-0.3h-2.8v6.1c1-0.3,2-0.8,2.7-1.4c0.2-0.1,0.4,0.1,0.2,0.3c-1.3,1.5-3.3,2.7-5.4,2.8c-0.7,0-0.8-1-0.1-1.1
	C90.3,18,90.8,17.9,91.2,17.8L91.2,17.8z M95.1,6.6V3.2h-2.8v3.4L95.1,6.6L95.1,6.6z M95.1,10.7V7.2h-2.8v3.5H95.1z M92.7,21.4
	c4.1-2.3,6-5.4,7.4-10.3h-1.9c-0.1,0.3-0.2,0.7-0.4,1c-0.3,0.9-1.3,0.4-1.1-0.3c0.8-1.9,1.3-4.9,1.6-7.7c0.1-0.7,1.2-0.7,1.1,0.2
	c-0.2,2.1-0.6,4.4-1.1,6.2h1.8c0.6-2.5,0.8-5.1,0.9-7.4h-3.5c-0.2,0-0.3-0.1-0.3-0.3s0.1-0.3,0.3-0.3h5.1c0.4,0,0.7-0.2,1-0.2
	s0.5,0.2,0.5,0.5s-0.2,0.5-0.5,0.5s-0.6-0.2-1-0.2h-0.5c-0.1,2.5-0.3,5.2-0.8,7.4h1.5c0.4,0,0.7-0.2,1-0.2s0.5,0.2,0.5,0.5
	s-0.2,0.5-0.5,0.5s-0.6-0.2-1-0.2h-1.6c-1.4,5.3-3.3,8.6-8.4,10.6C92.6,21.8,92.5,21.5,92.7,21.4L92.7,21.4z M94.3,13.1
	c1.3,0.7,2.4,1.8,2.8,3.1c0.3,0.8-0.7,1.3-1.1,0.5c-0.7-1.6-1.3-2.4-2-3.4C94,13.2,94.1,13,94.3,13.1z M100.5,14.4
	c0-0.3,0.2-0.6,0.6-0.6s0.6,0.2,0.6,0.6v4.8c0,0.8,0.4,1,1.1,1c0.9,0,1.3-0.5,1.5-1.9c0-0.2,0.3-0.1,0.3,0c0.4,1.9-0.2,3-1.8,3
	s-2.2-0.8-2.2-1.8L100.5,14.4L100.5,14.4z"/>
<path class="st0" d="M112.5,21.3c3.8-0.5,7.1-1.3,9.7-3.1c-1.3-0.4-2.6-0.8-3.8-1.1c-0.2,0-0.2-0.4,0.1-0.4c1.5,0.1,3.1,0.4,4.7,0.8
	c1.1-0.9,2-2,2.7-3.5H120c-1,1.4-2.2,2.8-3.6,3.9c-0.6,0.5-1.4-0.4-0.8-0.9c1.1-1,2.1-2,2.9-3.1h-6.2c-0.2,0-0.3-0.1-0.3-0.3
	s0.1-0.3,0.3-0.3h6.6c0.5-0.7,0.8-1.4,1.2-2c0.4-0.7,1.4-0.2,1.1,0.5c-0.2,0.5-0.5,1-0.8,1.5h10c0.5,0,0.8-0.2,1.1-0.2
	s0.5,0.2,0.5,0.5s-0.2,0.5-0.5,0.5s-0.6-0.2-1-0.2h-3.2c-0.7,1.5-1.6,2.8-2.7,3.8c2.2,0.6,4.2,1.5,6,2.3c0.9,0.4,0.3,1.6-0.5,1.2
	c-2.1-1.1-4.3-2-6.4-2.7c-2.8,2-6.5,2.9-11,3C112.3,21.7,112.3,21.4,112.5,21.3L112.5,21.3z M112.8,2.5H130c0.5,0,0.8-0.2,1.1-0.2
	s0.5,0.2,0.5,0.5s-0.2,0.5-0.5,0.5s-0.6-0.2-1-0.2H125V6h3.4V5.7c0-0.3,0.2-0.6,0.6-0.6s0.6,0.2,0.6,0.6v5.4c0,0.4-0.3,0.6-0.6,0.6
	c-0.4,0-0.6-0.3-0.6-0.6v-0.4h-12.7v0.5c0,0.4-0.3,0.6-0.6,0.6s-0.6-0.2-0.6-0.6V5.7c0-0.4,0.2-0.6,0.6-0.6s0.6,0.2,0.6,0.6V6h3.4
	V3.1h-6.2c-0.2,0-0.3-0.1-0.3-0.3C112.5,2.6,112.6,2.5,112.8,2.5L112.8,2.5z M119,10.1V6.6h-3.4v3.5H119z M123.6,6V3.1h-3.4V6H123.6
	L123.6,6z M123.6,10.1V6.6h-3.4v3.5H123.6z M128.3,10.1V6.6h-3.4v3.5H128.3z"/>
</svg>
