<?xml version="1.0" encoding="utf-8"?>
<!-- Generator: Adobe Illustrator 26.5.1, SVG Export Plug-In . SVG Version: 6.00 Build 0)  -->
<svg version="1.1" id="_圖層_3_拷貝_2" xmlns="http://www.w3.org/2000/svg" xmlns:xlink="http://www.w3.org/1999/xlink" x="0px"
	 y="0px" viewBox="0 0 160.9 22.7" style="enable-background:new 0 0 160.9 22.7;" xml:space="preserve">
<style type="text/css">
	.st0{fill:#AD9F79;stroke:#AA9D78;stroke-width:0.5;stroke-linecap:round;stroke-linejoin:round;stroke-miterlimit:10;}
</style>
<path class="st0" d="M15.7,3.8c0-0.3,0.2-0.6,0.6-0.6s0.6,0.2,0.6,0.6v0.3h2.4V3.8c0-0.3,0.2-0.5,0.6-0.5s0.5,0.2,0.5,0.5v13.1
	c0,0.3-0.2,0.5-0.5,0.5s-0.6-0.2-0.6-0.5v-1.3h-2.4v2.1c0,0.3-0.2,0.6-0.6,0.6s-0.6-0.2-0.6-0.6V3.8z M19.3,14.9V4.8h-2.4v10.2
	L19.3,14.9L19.3,14.9z M18.8,21.4c2.9-3.1,3.5-6.6,4-12.4L23,6h-1.7C21.1,6,21,5.8,21,5.7s0.1-0.3,0.3-0.3H23l0.2-3.9
	c0-0.8,1.2-0.7,1.2,0c0,1.1-0.1,2.5-0.2,3.8h2.1V5c0-0.8,1.2-0.8,1.2,0L27.2,17c-0.1,2.9-1.4,4.7-4.8,4.1c-0.2,0-0.2-0.4,0-0.4
	c2.8,0,3.5-1.3,3.6-4.2L26.3,6h-2.2L24,9c-0.4,5.6-1.1,9.8-4.9,12.7C18.9,21.9,18.7,21.6,18.8,21.4L18.8,21.4z M28.5,3.8
	c0-0.3,0.2-0.5,0.6-0.5s0.5,0.2,0.5,0.5v0.3h2.8V3.8c0-0.3,0.2-0.5,0.6-0.5s0.5,0.2,0.5,0.5v16.8c0,0.3-0.2,0.6-0.5,0.6
	s-0.6-0.2-0.6-0.6V19h-2.8v1.9c0,0.3-0.2,0.6-0.5,0.6s-0.6-0.2-0.6-0.6V3.8z M32.4,18.4V4.8h-2.8v13.6L32.4,18.4L32.4,18.4z"/>
<path class="st0" d="M43.6,3.8c0-0.3,0.2-0.6,0.6-0.6s0.6,0.2,0.6,0.6v0.3h2.4V3.8c0-0.3,0.2-0.6,0.6-0.6s0.6,0.2,0.6,0.6v13.3
	c0,0.3-0.2,0.6-0.6,0.6s-0.6-0.2-0.6-0.6v-0.8h-2.4v1.5c0,0.3-0.2,0.6-0.6,0.6s-0.6-0.2-0.6-0.6V3.8z M47.2,15.6V4.7h-2.4v10.9
	L47.2,15.6L47.2,15.6z M48.1,21.4c4.5-2.8,5-5.4,5-11h-3.2c-0.2,0-0.3-0.1-0.3-0.3s0.1-0.3,0.3-0.3h3.2V5.6h-3.5
	c-0.2,0-0.3-0.1-0.3-0.3S49.5,5,49.6,5h3.5V1.6c0-0.4,0.3-0.6,0.6-0.6c0.3,0,0.6,0.2,0.6,0.6v9c0,6-1.1,9.3-6.1,11.1
	C48,21.9,47.9,21.5,48.1,21.4z M52.4,14.1c0.2-0.1,0.3,0.1,0.3,0.2c-0.8,1.4-1.8,2.3-3.2,2.6c-0.7,0.2-1-0.9-0.3-1.1
	C50.6,15.4,51.3,15,52.4,14.1L52.4,14.1z M56.6,1.6c0-0.4,0.2-0.6,0.6-0.6s0.6,0.2,0.6,0.6v3.3h2.3c0.5,0,0.8-0.2,1.1-0.2
	s0.5,0.2,0.5,0.5s-0.2,0.5-0.5,0.5s-0.6-0.2-1-0.2h-2.3v4.2h2.1c0.5,0,0.8-0.2,1.1-0.2s0.5,0.2,0.5,0.5s-0.2,0.5-0.5,0.5
	s-0.6-0.2-1-0.2h-2.1v4.5h2.9c0.5,0,0.8-0.2,1.1-0.2s0.5,0.2,0.5,0.5c0,0.3-0.2,0.5-0.5,0.5s-0.6-0.2-1-0.2h-2.9v5.6
	c0,0.3-0.2,0.6-0.6,0.6s-0.6-0.2-0.6-0.6L56.6,1.6L56.6,1.6z"/>
<path class="st0" d="M69.4,21.5c2.2-3.2,2.3-7.3,2.3-13.2V3.5C71.7,3.2,72,3,72.3,3s0.6,0.2,0.6,0.6v0.3h15.2c0.4,0,0.7-0.2,1-0.2
	s0.5,0.2,0.5,0.5s-0.2,0.5-0.5,0.5s-0.6-0.2-1-0.2H72.9v4.3c0,5.8-0.1,9.9-3.1,13C69.6,22,69.3,21.7,69.4,21.5L69.4,21.5z
	 M75.2,19.5v-2h-1.4c-0.2,0-0.3-0.1-0.3-0.3s0.1-0.3,0.3-0.3h1.4v-1.7h-1.5c-0.2,0-0.3-0.1-0.3-0.3s0.1-0.3,0.3-0.3h3.1
	c0.4,0,0.7-0.2,1-0.2c0.3,0,0.5,0.2,0.5,0.5s-0.2,0.5-0.5,0.5c-0.3,0-0.6-0.2-1-0.2h-0.6v1.7h0.2c0.4,0,0.7-0.2,1-0.2
	c0.3,0,0.5,0.2,0.5,0.5s-0.2,0.5-0.5,0.5c-0.3,0-0.6-0.2-1-0.2h-0.2v1.8c0.6-0.1,1.3-0.3,1.9-0.6c0.2,0,0.3,0.2,0.1,0.3
	c-1.3,0.9-3.1,1.6-5,1.8c-0.6,0-0.7-0.9-0.1-1C73.9,19.7,74.6,19.6,75.2,19.5L75.2,19.5z M73.8,5.7h5.7c0.4,0,0.7-0.2,1-0.2
	s0.5,0.2,0.5,0.5s-0.2,0.5-0.5,0.5c-0.2,0-0.5-0.2-0.9-0.2v15.1c0,0.3-0.2,0.5-0.5,0.5s-0.5-0.2-0.5-0.5V10.7h-2.9v1.7
	c0.9-0.1,1.7-0.3,2.4-0.5c0.2-0.1,0.2,0.2,0.1,0.3c-1.2,0.8-2.6,1.2-4.3,1.4c-0.7,0.1-0.8-0.9-0.1-1l0.8-0.1V6.3h-0.9
	c-0.2,0-0.3-0.1-0.3-0.3S73.6,5.7,73.8,5.7L73.8,5.7z M78.6,7.9V6.3h-2.9v1.7H78.6z M78.6,10.1V8.5h-2.9v1.5H78.6z M78.2,1
	c1.4,0.1,3,0.5,3.7,1.4c0.7,0.8-0.2,1.5-0.8,1c-1.1-0.9-2-1.6-3-2.1C78,1.2,78,1,78.2,1z M81.5,16.6c0-0.1,0.3-0.2,0.3,0
	c0.1,1.3-0.2,2.9-1.1,3.6c-0.5,0.4-1.2-0.3-0.7-0.8C80.9,18.6,81.3,17.5,81.5,16.6z M80.6,13.7H88c0.4,0,0.7-0.2,1-0.2
	s0.5,0.2,0.5,0.5s-0.2,0.5-0.5,0.5s-0.6-0.2-1-0.2h-7.4c-0.2,0-0.3-0.1-0.3-0.3S80.4,13.7,80.6,13.7z M80.9,6.8h3.5V5.4
	c0-0.3,0.2-0.5,0.5-0.5s0.5,0.2,0.5,0.5v1.4h2.4c0.4,0,0.7-0.2,1-0.2s0.5,0.2,0.5,0.5s-0.2,0.5-0.5,0.5s-0.6-0.2-1-0.2h-2.5v1.4h2.3
	V8.7c0-0.3,0.2-0.5,0.5-0.5s0.5,0.2,0.5,0.5v3.8c0,0.3-0.2,0.5-0.5,0.5s-0.5-0.2-0.5-0.5v-0.3h-5.6v0.4c0,0.3-0.2,0.5-0.5,0.5
	s-0.5-0.2-0.5-0.5V8.7c0-0.3,0.2-0.5,0.5-0.5s0.5,0.2,0.5,0.5v0.1h2.2V7.5h-3.5c-0.2,0-0.3-0.1-0.3-0.3S80.7,6.9,80.9,6.8L80.9,6.8z
	 M83.4,11.7V9.4h-1.2v2.2H83.4z M82.6,15.9c0-0.3,0.2-0.5,0.5-0.5s0.5,0.2,0.5,0.5v3.3c0,0.8,0.5,1.2,1.3,1.3c0.4,0,0.9,0,1.3,0
	c1.1-0.1,1.3-0.9,1.4-1.7c0-0.2,0.3-0.2,0.3,0c0.3,1.5-0.3,2.6-1.7,2.7c-0.3,0-0.9,0-1.4,0c-1.3-0.1-2.2-0.8-2.2-2.1
	C82.6,19.2,82.6,15.9,82.6,15.9z M84.4,14.7c0.9,0.4,1.9,1.6,2.1,2.6c0.1,0.7-0.8,1-1.1,0.2c-0.2-0.7-0.7-2-1.2-2.6
	C84,14.8,84.2,14.6,84.4,14.7z M85.5,11.7V9.4h-1.3v2.2H85.5z M87.7,11.7V9.4h-1.3v2.2H87.7z M87.5,16.4c1.1,0.5,2.2,1.7,2.5,3
	c0.1,0.7-0.8,1-1.1,0.2c-0.3-1-0.8-2.1-1.6-2.9C87.3,16.5,87.4,16.3,87.5,16.4L87.5,16.4z"/>
<path class="st0" d="M97.1,21.5c2.2-3.2,2.3-6.9,2.3-12.1v-6c0-0.3,0.2-0.6,0.6-0.6s0.6,0.2,0.6,0.6v0.3h15.2c0.4,0,0.7-0.2,1-0.2
	s0.5,0.2,0.5,0.5s-0.2,0.5-0.5,0.5s-0.6-0.2-1-0.2h-15.3v5.5c0,5-0.1,8.8-3.2,11.9C97.2,21.9,96.9,21.7,97.1,21.5L97.1,21.5z
	 M102.4,16.2c0.1-0.2,0.3-0.2,0.3,0c0.1,1.8-0.6,3.9-2.1,4.7c-0.8,0.4-1.3-0.5-0.7-1C101.2,19,101.9,17.8,102.4,16.2L102.4,16.2z
	 M103.8,5.4c0.2-0.8,1.3-0.5,1.2,0.3c-0.5,2.2-2.1,4.6-3.8,5.5c-0.2,0.1-0.3-0.2-0.2-0.3C102.3,9.4,103.3,7.2,103.8,5.4z
	 M102.8,10.6c0-0.3,0.2-0.6,0.6-0.6s0.6,0.2,0.6,0.6v3.9c0,0.3-0.2,0.6-0.6,0.6s-0.6-0.2-0.6-0.6V10.6z M104.3,16
	c0-0.3,0.2-0.6,0.6-0.6s0.6,0.2,0.6,0.6v2c0,1.4,0.6,2,2.3,2.1c0.7,0,2.4,0,3.1,0c1.6-0.1,2.1-0.9,2.3-2.5c0-0.2,0.3-0.2,0.3,0
	c0.5,2.2-0.7,3.5-2.6,3.6c-0.8,0-2.5,0-3.3,0c-2.3-0.1-3.4-1.1-3.4-3.1L104.3,16L104.3,16z M107.3,5.4c0.2-0.8,1.3-0.5,1.2,0.3
	c-0.5,2.2-2.1,4.6-3.8,5.5c-0.2,0.1-0.3-0.2-0.2-0.3C105.8,9.4,106.8,7.2,107.3,5.4z M105.8,1c1.4,0.1,2.7,0.5,3.4,1.2
	c0.7,0.7-0.2,1.6-0.8,1c-1-0.9-1.7-1.5-2.7-2C105.5,1.2,105.6,0.9,105.8,1L105.8,1z M106.4,10.4c0-0.3,0.2-0.6,0.6-0.6
	s0.6,0.2,0.6,0.6v3h3.6v-1.7h-2.8c-0.2,0-0.3-0.1-0.3-0.3s0.1-0.3,0.3-0.3h2.8V9.6h-2.8c-0.2,0-0.3-0.1-0.3-0.3s0.1-0.3,0.3-0.3h2.8
	V7.4h-2.4c-0.2,0-0.3-0.1-0.3-0.3s0.1-0.3,0.3-0.3h2.5c0.4-0.5,0.8-1.1,1.1-1.7c0.4-0.8,1.4-0.2,1.1,0.4c-0.3,0.5-0.8,0.9-1.4,1.2
	h2.5c0.4,0,0.7-0.2,1-0.2s0.5,0.2,0.5,0.5c0,0.3-0.2,0.5-0.5,0.5s-0.6-0.2-1-0.2h-2.2V9h1.5c0.4,0,0.7-0.2,1-0.2s0.5,0.2,0.5,0.5
	s-0.2,0.5-0.5,0.5s-0.6-0.2-0.9-0.2h-1.6v1.5h1.5c0.4,0,0.7-0.2,1-0.2s0.5,0.2,0.5,0.5s-0.2,0.5-0.5,0.5s-0.6-0.2-0.9-0.2h-1.6v1.7
	h2.7c0.4,0,0.7-0.2,1-0.2s0.5,0.2,0.5,0.5s-0.2,0.5-0.5,0.5s-0.6-0.2-1-0.2h-7.5v0.5c0,0.3-0.2,0.6-0.6,0.6s-0.6-0.2-0.6-0.6
	C106.4,14.5,106.4,10.4,106.4,10.4z M107.8,15.3c1.4,0.3,2.8,1,3.5,2.2c0.4,0.6-0.5,1.4-1,0.8c-1-1.3-1.6-1.9-2.7-2.7
	C107.6,15.5,107.6,15.3,107.8,15.3z M113.8,16c1.6,0.7,3,1.9,3.7,3.6c0.3,0.7-0.7,1.3-1.1,0.5c-0.8-1.5-1.5-2.6-2.8-3.8
	C113.5,16.2,113.6,15.9,113.8,16L113.8,16z"/>
<path class="st0" d="M125.5,6.2h3V1.6c0-0.3,0.2-0.6,0.6-0.6s0.6,0.2,0.6,0.6v4.6h1.6c0.4,0,0.7-0.2,1-0.2s0.5,0.2,0.5,0.5
	c0,0.3-0.2,0.5-0.5,0.5s-0.6-0.2-1-0.2h-1.6V11c0.9-0.5,1.7-1,2.5-1.7c0.2-0.2,0.5,0.1,0.3,0.3c-0.8,0.9-1.7,1.8-2.8,2.5v5.9
	c0,2.7-1.6,4.1-4.1,3.5c-0.2,0-0.2-0.3,0-0.3c2.3-0.1,2.9-1.2,2.9-3.5v-4.8c-0.8,0.4-1.7,0.8-2.7,1c-0.8,0.2-1.2-0.9-0.3-1.1
	c1.2-0.4,2.1-0.7,3-1.1V6.8h-3c-0.2,0-0.3-0.1-0.3-0.3S125.3,6.2,125.5,6.2L125.5,6.2z M132.4,21.4c2.2-0.6,4.2-1.5,5.9-2.7
	c-1.1-1-2-2-2.5-3.2c-0.1-0.2,0.2-0.4,0.3-0.2c0.8,1.1,1.8,2,3,2.7c1.1-1,2-2.2,2.6-3.6h-6.3c-0.9,3.1-2.6,5.5-5.5,7.1
	c-0.2,0.1-0.4-0.1-0.2-0.3c3.1-2.7,4.5-5.4,5.1-9.4h-2.8c-0.2,0-0.3-0.1-0.3-0.3s0.1-0.3,0.3-0.3h2.8c0.1-0.7,0.1-1.4,0.2-2.1h-1.9
	c-0.2,0-0.3-0.1-0.3-0.3c0-0.2,0.1-0.3,0.3-0.3h9.5c0.4,0,0.7-0.2,1-0.2s0.5,0.2,0.5,0.5c0,0.3-0.2,0.5-0.5,0.5s-0.6-0.2-1-0.2h-6.4
	c0,0.7-0.1,1.4-0.2,2.1h7.3c0.4,0,0.7-0.2,1-0.2s0.5,0.2,0.5,0.5s-0.2,0.5-0.5,0.5s-0.6-0.2-1-0.2H136c-0.1,0.7-0.2,1.3-0.4,1.9h6.4
	l0.1-0.2c0.2-0.7,1.3-0.4,1.1,0.4c-0.5,1.8-1.5,3.4-3,4.7c1.4,0.8,2.9,1.4,4.5,1.8c0.8,0.2,0.5,1.5-0.3,1.3
	c-1.8-0.4-3.7-1.2-5.2-2.3c-1.8,1.3-4.1,2.1-6.7,2.4C132.3,21.8,132.2,21.4,132.4,21.4L132.4,21.4z M132.7,3.7
	c3.4-0.3,8-1.2,10.5-2.4c0.8-0.4,1.3,0.7,0.6,1.1c-2.7,1.4-7.5,1.9-11.1,1.7C132.5,4.1,132.4,3.7,132.7,3.7L132.7,3.7z M134.3,4.8
	c1,0.5,1.9,1.3,2.3,2.4c0.3,0.8-0.8,1.2-1.1,0.4c-0.4-1-0.9-1.9-1.4-2.6C133.9,4.9,134.1,4.7,134.3,4.8L134.3,4.8z M137.4,4.4
	c1,0.6,1.8,1.5,2.1,2.7c0.2,0.9-0.9,1.1-1.2,0.3c-0.3-1-0.6-1.8-1.1-2.7C137.1,4.5,137.3,4.3,137.4,4.4z M142.3,4.2
	c0.2-0.8,1.4-0.5,1.1,0.4c-0.5,1.7-1.4,2.8-2.9,3.6c-0.1,0.1-0.3-0.1-0.2-0.2C141.4,6.6,141.9,5.6,142.3,4.2z"/>
</svg>
