<?xml version="1.0" encoding="utf-8"?>
<!-- Generator: Adobe Illustrator 26.5.1, SVG Export Plug-In . SVG Version: 6.00 Build 0)  -->
<svg version="1.1" id="_圖層_3_拷貝_3" xmlns="http://www.w3.org/2000/svg" xmlns:xlink="http://www.w3.org/1999/xlink" x="0px"
	 y="0px" viewBox="0 0 160.9 22.7" style="enable-background:new 0 0 160.9 22.7;" xml:space="preserve">
<style type="text/css">
	.st0{fill:#AD9F79;stroke:#AA9D78;stroke-width:0.5;stroke-linecap:round;stroke-linejoin:round;stroke-miterlimit:10;}
</style>
<path class="st0" d="M1.2,11.5c2.6-3,4.2-6.3,5-10c0.2-0.9,1.4-0.6,1.2,0.3c-0.8,4-2.8,7.7-6,10.1C1.2,12,1,11.7,1.2,11.5L1.2,11.5z
	 M4.2,10.2c0-0.4,0.2-0.6,0.6-0.6s0.6,0.3,0.6,0.6v11c0,0.4-0.2,0.7-0.6,0.7s-0.6-0.3-0.6-0.7V10.2z M8,5.1h11.7
	c0.5,0,0.8-0.2,1.1-0.2s0.5,0.2,0.5,0.5S21.1,6,20.8,6s-0.6-0.2-1.1-0.2H8c-0.2,0-0.3-0.1-0.3-0.3S7.8,5.1,8,5.1z M9.4,8.1h8.9
	c0.5,0,0.7-0.2,1-0.2s0.5,0.2,0.5,0.5s-0.2,0.5-0.5,0.5s-0.6-0.2-1-0.2h-9c-0.2,0-0.3-0.1-0.3-0.3S9.3,8.1,9.4,8.1L9.4,8.1z M9.4,11
	h8.9c0.5,0,0.7-0.2,1-0.2s0.5,0.2,0.5,0.5s-0.2,0.5-0.5,0.5s-0.6-0.2-1-0.2h-9c-0.2,0-0.3-0.1-0.3-0.3S9.3,11,9.4,11L9.4,11z
	 M9.3,14c0-0.4,0.2-0.6,0.6-0.6s0.6,0.2,0.6,0.6v0.4h8V14c0-0.4,0.2-0.6,0.6-0.6s0.6,0.2,0.6,0.6v7.1c0,0.4-0.2,0.6-0.6,0.6
	s-0.6-0.2-0.6-0.6v-1.3h-8v1.4c0,0.4-0.2,0.6-0.6,0.6s-0.6-0.2-0.6-0.6V14z M18.5,19.1V15h-8v4.2H18.5z M12.1,1
	c1.4,0.4,3,1.3,3.8,2.5c0.6,0.9-0.4,1.6-1,0.9c-1-1.3-1.9-2.3-2.9-3C11.8,1.2,11.9,0.9,12.1,1L12.1,1z"/>
<path class="st0" d="M34.6,6.4C35,5.7,36,6.1,35.7,6.9c-1,2.8-3.4,5.2-6.5,6.6c-0.2,0.1-0.3-0.2-0.2-0.3
	C31.6,11.2,33.3,9.2,34.6,6.4z M34,1.5c0.3-0.7,1.5-0.4,1.2,0.5c-1.1,2.7-3.2,5.2-5.8,6.4c-0.2,0.1-0.3-0.2-0.2-0.3
	C31.3,6.3,32.8,4.1,34,1.5L34,1.5z M32,12.6c0-0.3,0.2-0.6,0.6-0.6s0.6,0.2,0.6,0.6v8.6c0,0.4-0.2,0.6-0.6,0.6S32,21.6,32,21.2V12.6
	L32,12.6z M37.1,12.2c0.1-0.8,1.2-0.7,1.2,0.1c-0.2,4-1.5,7.4-4.5,9.5c-0.2,0.1-0.4-0.1-0.2-0.3C36.2,18.8,36.8,15.8,37.1,12.2
	L37.1,12.2z M38.1,16.5c-0.1-0.2,0.2-0.3,0.3-0.2c0.8,1.2,1.7,2.1,2.8,2.7v-8.9h-5.8c-0.2,0-0.3-0.1-0.3-0.3s0.1-0.3,0.3-0.3h5.8
	V5.5h-4.4c-0.2,0-0.3-0.1-0.3-0.3c0-0.2,0.1-0.3,0.3-0.3h4.4V1.8c0-0.4,0.3-0.6,0.6-0.6c0.3,0,0.6,0.2,0.6,0.6v3.2h3.6
	c0.4,0,0.7-0.2,1-0.2s0.5,0.2,0.5,0.5s-0.2,0.5-0.5,0.5s-0.6-0.2-1-0.2h-3.6v3.9h5.2c0.4,0,0.7-0.2,1-0.2c0.3,0,0.5,0.2,0.5,0.5
	s-0.2,0.5-0.5,0.5c-0.3,0-0.6-0.2-1-0.2h-5.2v3.5h4.1c0.4,0,0.7-0.2,1-0.2c0.3,0,0.5,0.2,0.5,0.5s-0.2,0.5-0.5,0.5
	c-0.3,0-0.6-0.2-1-0.2h-4.1v5.3c1.6,0.5,3.6,0.6,6.1,0.4c0.9,0,1,1.3,0.1,1.4C43.6,21.7,39.6,20.6,38.1,16.5L38.1,16.5z"/>
<path class="st0" d="M62.7,1.2c0.3-0.8,1.5-0.4,1.2,0.4c-1.2,3.1-4,6.1-7.4,7.5c-0.3,0.1-0.4-0.2-0.2-0.4
	C59.2,6.8,61.4,4.1,62.7,1.2z M59,12.7V8.3c0-0.3,0.2-0.6,0.5-0.6c0.3,0,0.6,0.2,0.6,0.6v0.2h6.4V8.3c0-0.3,0.2-0.6,0.6-0.6
	s0.6,0.2,0.6,0.6v5.6c0,0.3-0.2,0.6-0.6,0.6s-0.6-0.2-0.6-0.6v-0.3h-6.5c-0.1,3.5-1,6.5-3.1,8.1c-0.2,0.1-0.4-0.1-0.3-0.2
	C58.6,19,59,16.4,59,12.7z M66.6,10.7V9.1h-6.4v1.6H66.6z M66.6,12.9v-1.6h-6.4v1.6H66.6z M60.6,15.5c0-0.3,0.2-0.6,0.5-0.6
	c0.3,0,0.6,0.2,0.6,0.6v0.3h5.4v-0.3c0-0.3,0.2-0.6,0.6-0.6s0.6,0.2,0.6,0.6V21c0,0.3-0.2,0.6-0.6,0.6s-0.6-0.2-0.6-0.6v-1.3h-5.4
	v1.5c0,0.3-0.2,0.6-0.6,0.6c-0.3,0-0.5-0.2-0.5-0.6V15.5z M67.1,19.2v-2.7h-5.4v2.7H67.1z M62.4,5.2c0.8,0.4,1.9,0.9,2.3,1.9
	c0.3,0.8-0.7,1.3-1.1,0.6c-0.4-0.7-0.8-1.4-1.5-2.2C62.1,5.3,62.2,5.1,62.4,5.2L62.4,5.2z M64.2,2.6c1.7,0.6,3.4,1.9,4.3,3.3
	c0.6,0.9-0.5,1.6-1,0.8c-1.1-1.6-2-2.6-3.4-3.7C63.9,2.8,64,2.6,64.2,2.6L64.2,2.6z M70.1,3.9c0-0.3,0.2-0.6,0.6-0.6
	s0.6,0.2,0.6,0.6v12.5c0,0.3-0.2,0.6-0.6,0.6s-0.6-0.2-0.6-0.6C70.1,16.4,70.1,3.9,70.1,3.9z M71.3,21.2c2.3-0.3,3-1.4,3-3.6v-16
	c0-0.3,0.2-0.6,0.6-0.6s0.6,0.2,0.6,0.6v16.5c0,2.6-1.8,4-4.2,3.5C71.1,21.6,71.1,21.3,71.3,21.2z"/>
<path class="st0" d="M83.9,11.4c2.8-3,4.5-6.4,5.4-9.9c0.2-0.9,1.4-0.6,1.2,0.3c-0.8,3.7-2.8,7.5-6.4,9.9
	C84,11.8,83.8,11.5,83.9,11.4L83.9,11.4z M87.7,9.7C87.7,9.3,88,9,88.3,9S89,9.3,89,9.7v11.6c0,0.4-0.3,0.7-0.6,0.7
	s-0.6-0.3-0.6-0.7V9.7L87.7,9.7z M94.5,1.5c0.2-0.8,1.4-0.6,1.2,0.3C95,5,93.7,8.5,90.1,11c-0.2,0.1-0.5-0.1-0.3-0.3
	C92.7,7.4,93.7,4.6,94.5,1.5z M95.6,4.9h7.3c0.5,0,0.8-0.2,1.1-0.2c0.3,0,0.5,0.2,0.5,0.5c0,0.3-0.2,0.5-0.5,0.5
	c-0.3,0-0.6-0.2-1.1-0.2h-5.5V10h5c0.4,0,0.7-0.2,1-0.2c0.3,0,0.5,0.2,0.5,0.5s-0.2,0.5-0.5,0.5c-0.3,0-0.6-0.2-1-0.2h-5v4.4h5
	c0.4,0,0.7-0.2,1-0.2c0.3,0,0.5,0.2,0.5,0.5s-0.2,0.5-0.5,0.5c-0.3,0-0.6-0.2-1-0.2h-5v5.7c0,0.4-0.3,0.6-0.6,0.6s-0.6-0.2-0.6-0.6
	V5.6h-0.5c-0.2,0-0.3-0.1-0.3-0.3C95.3,5.1,95.4,4.9,95.6,4.9L95.6,4.9z"/>
<path class="st0" d="M112.3,12.6h5.9c0.5-0.6,1-1.3,1.4-2h-3.1v0.4c0,0.3-0.2,0.6-0.6,0.6s-0.6-0.2-0.6-0.6V5.7
	c0-0.3,0.2-0.6,0.6-0.6s0.6,0.2,0.6,0.6v0.1h10.7V5.7c0-0.3,0.2-0.6,0.6-0.6c0.3,0,0.6,0.2,0.6,0.6v5.2c0,0.3-0.2,0.6-0.6,0.6
	s-0.6-0.2-0.6-0.6v-0.4H121c-0.4,0.8-0.9,1.4-1.3,2h10.5c0.5,0,0.7-0.2,1-0.2s0.5,0.2,0.5,0.5s-0.2,0.5-0.5,0.5s-0.6-0.2-1-0.2h-5.2
	c2.3,1.4,4.5,2,6.7,2.5c0.8,0.2,0.6,1.3-0.2,1.2c-2-0.4-5.1-1.5-7.1-3.7h-5.1c-1.9,2.1-4.3,3.3-6.9,3.8c-0.2,0-0.3-0.3-0.1-0.3
	c2.2-0.8,4-1.8,5.6-3.4h-5.3c-0.2,0-0.3-0.1-0.3-0.3C112,12.7,112.2,12.6,112.3,12.6L112.3,12.6z M112.5,2.9h5.6V1.6
	c0-0.4,0.2-0.6,0.6-0.6s0.6,0.2,0.6,0.6v1.3h5V1.6c0-0.4,0.2-0.6,0.6-0.6s0.6,0.2,0.6,0.6v1.3h4.5c0.4,0,0.7-0.2,1-0.2
	s0.5,0.2,0.5,0.5s-0.2,0.5-0.5,0.5s-0.6-0.2-1-0.2h-4.5v1.2c0,0.3-0.2,0.6-0.6,0.6s-0.6-0.2-0.6-0.6V3.5h-5v1.2
	c0,0.3-0.2,0.6-0.6,0.6s-0.6-0.2-0.6-0.6V3.5h-5.6c-0.2,0-0.3-0.1-0.3-0.3S112.3,2.9,112.5,2.9z M112.7,21.4
	c3.2-0.8,5.4-2.2,6.9-4.6h-3.7c-0.2,0-0.3-0.1-0.3-0.3s0.1-0.3,0.3-0.3h4c0.3-0.6,0.6-1.3,0.8-2c0.2-0.8,1.4-0.6,1.2,0.3
	c-0.2,0.6-0.3,1.2-0.6,1.7h4.8V16c0.1-0.8,1.3-0.7,1.2,0.1l-0.2,2.7c-0.1,2.2-2.1,3.2-4.9,2.6c-0.2,0-0.2-0.4,0.1-0.4
	c2.2,0,3.5-0.8,3.6-2.6l0.1-1.5h-5.1c-1.6,3-4.5,4.6-8.3,4.9C112.6,21.8,112.5,21.5,112.7,21.4L112.7,21.4z M127.2,7.8V6.4h-10.7
	v1.4H127.2z M127.2,9.9V8.4h-10.7v1.5H127.2z"/>
<path class="st0" d="M139.6,20.6c3.2-1,7.4-3.2,9.1-5.5H140c-0.2,0-0.3-0.1-0.3-0.3s0.1-0.3,0.3-0.3h9.2V13c0-0.3,0.2-0.6,0.6-0.6
	s0.6,0.2,0.6,0.6v1.5h7.5c0.4,0,0.7-0.2,1-0.2s0.5,0.2,0.5,0.5s-0.2,0.5-0.5,0.5s-0.6-0.2-1-0.2h-7.5v6.1c0,0.4-0.2,0.6-0.6,0.6
	s-0.6-0.2-0.6-0.6v-4.8c-2,2.2-6.4,4.1-9.6,4.6C139.4,21,139.4,20.7,139.6,20.6L139.6,20.6z M144.4,1.4c0.3-0.8,1.4-0.5,1.2,0.4
	c-0.8,2.6-3.1,5.6-5.9,7c-0.2,0.1-0.3-0.2-0.2-0.3C141.7,6.7,143.5,3.9,144.4,1.4z M142.7,7.4c0-0.3,0.3-0.6,0.6-0.6
	s0.6,0.2,0.6,0.6v4h6v-2h-5.1c-0.2,0-0.3-0.1-0.3-0.3c0-0.2,0.1-0.3,0.3-0.3h5.1V7h-5.1c-0.2,0-0.3-0.1-0.3-0.3s0.1-0.3,0.3-0.3h5.1
	V4.7h-4.7c-0.2,0-0.3-0.1-0.3-0.3s0.1-0.3,0.3-0.3h11.9c0.4,0,0.7-0.2,1-0.2s0.5,0.2,0.5,0.5s-0.2,0.5-0.5,0.5s-0.6-0.2-1-0.2h-6
	v1.8h4.6c0.4,0,0.7-0.2,1-0.2s0.5,0.2,0.5,0.5s-0.2,0.5-0.5,0.5S156.2,7,155.8,7h-4.7v1.7h4.6c0.4,0,0.7-0.2,1-0.2s0.5,0.2,0.5,0.5
	s-0.2,0.5-0.5,0.5s-0.6-0.2-0.9-0.2h-4.7v2h6c0.4,0,0.7-0.2,1-0.2s0.5,0.2,0.5,0.5s-0.2,0.5-0.5,0.5s-0.6-0.2-1-0.2h-13.2v0.8
	c0,0.4-0.3,0.6-0.6,0.6s-0.6-0.3-0.6-0.6L142.7,7.4L142.7,7.4z M151.5,1.3c0.4-0.8,1.5-0.2,1.2,0.5c-0.3,0.8-1.3,1.5-2.4,1.9
	c-0.2,0.1-0.3-0.2-0.2-0.3C150.8,2.7,151,2.2,151.5,1.3z M151.5,15.9c2,1.5,5,2.8,7.6,3.5c0.9,0.2,0.6,1.5-0.2,1.3
	c-2.7-0.5-6.2-2.6-7.7-4.6C151.1,16,151.3,15.7,151.5,15.9z"/>
</svg>
