<?xml version="1.0" encoding="utf-8"?>
<!-- Generator: Adobe Illustrator 26.5.1, SVG Export Plug-In . SVG Version: 6.00 Build 0)  -->
<svg version="1.1" id="_圖層_3_拷貝_4" xmlns="http://www.w3.org/2000/svg" xmlns:xlink="http://www.w3.org/1999/xlink" x="0px"
	 y="0px" viewBox="0 0 160.9 22.7" style="enable-background:new 0 0 160.9 22.7;" xml:space="preserve">
<style type="text/css">
	.st0{fill:#AD9F79;stroke:#AA9D78;stroke-width:0.5;stroke-linecap:round;stroke-linejoin:round;stroke-miterlimit:10;}
</style>
<path class="st0" d="M28.8,11.3c4.5-2.4,7.7-5.9,9.5-10c0.3-0.8,1.5-0.4,1.2,0.5c-1.7,4.3-5.7,8.3-10.6,9.9
	C28.7,11.8,28.6,11.5,28.8,11.3L28.8,11.3z M29.8,20.2h3.7v-8.4c0-0.4,0.2-0.6,0.6-0.6s0.6,0.2,0.6,0.6v8.4h3.9V7.5
	c0-0.4,0.2-0.6,0.6-0.6s0.6,0.2,0.6,0.6v5.7h4.5c0.5,0,0.8-0.2,1.1-0.2s0.5,0.2,0.5,0.5s-0.2,0.5-0.5,0.5s-0.6-0.2-1.1-0.2h-4.5v6.3
	h7.1c0.5,0,0.8-0.2,1.1-0.2c0.3,0,0.5,0.2,0.5,0.5s-0.2,0.5-0.5,0.5c-0.3,0-0.6-0.2-1.1-0.2H29.8c-0.2,0-0.3-0.1-0.3-0.3
	C29.4,20.4,29.6,20.2,29.8,20.2L29.8,20.2z M39.8,3.4c2.6,3.2,5.4,5.3,9.1,6.8c0.9,0.3,0.5,1.6-0.5,1.3c-3.7-1.3-7.2-4.3-9-7.9
	C39.4,3.4,39.7,3.3,39.8,3.4L39.8,3.4z"/>
<path class="st0" d="M56.7,11.5h5.9v-1.4h-4.7c-0.2,0-0.3-0.1-0.3-0.3s0.1-0.3,0.3-0.3h4.7V7.9h-4c-0.2,0-0.3-0.1-0.3-0.3
	s0.1-0.3,0.3-0.3h4V5.6h-5.5c-0.2,0-0.3-0.1-0.3-0.3c0-0.2,0.1-0.3,0.3-0.3h5.5V3.4h-4c-0.2,0-0.3-0.1-0.3-0.3s0.1-0.3,0.3-0.3h4
	V1.6c0-0.3,0.2-0.6,0.6-0.6s0.6,0.2,0.6,0.6v1.2h3.1V2.7c0-0.3,0.2-0.6,0.6-0.6S68,2.4,68,2.7V5h0.8c0.4,0,0.7-0.2,1-0.2
	s0.5,0.2,0.5,0.5c0,0.3-0.2,0.5-0.5,0.5s-0.6-0.2-1-0.2H68v2.4c0,0.4-0.2,0.6-0.6,0.6s-0.6-0.2-0.6-0.6V7.9h-3.1v1.6h3.6
	c0.4,0,0.7-0.2,1-0.2s0.5,0.2,0.5,0.5s-0.2,0.5-0.5,0.5s-0.6-0.2-0.9-0.2h-3.7v1.4h4.9c0.4,0,0.7-0.2,1-0.2s0.5,0.2,0.5,0.5
	s-0.2,0.5-0.5,0.5s-0.6-0.2-1-0.2H56.7c-0.2,0-0.3-0.1-0.3-0.3S56.5,11.5,56.7,11.5L56.7,11.5z M69.8,19.4c0.2,0,0.3,0.3,0.1,0.4
	c-3.4,1.3-7.9,1.7-12.6,1.6c-0.8,0-0.7-1.1,0-1.1C61.9,20.2,66.2,20.1,69.8,19.4L69.8,19.4z M58.8,13.3c0-0.3,0.2-0.6,0.6-0.6
	s0.5,0.2,0.5,0.6v0.1h6.6v-0.1c0-0.3,0.2-0.6,0.6-0.6s0.6,0.2,0.6,0.6v5.4c0,0.3-0.2,0.5-0.6,0.5s-0.6-0.2-0.6-0.5v-0.3h-6.7v0.4
	c0,0.3-0.2,0.6-0.5,0.6s-0.6-0.2-0.6-0.6L58.8,13.3L58.8,13.3z M62.7,15.5v-1.6h-2.7v1.6H62.7z M62.7,17.8v-1.7h-2.7v1.7H62.7z
	 M66.8,5V3.4h-3.1V5H66.8z M66.8,7.3V5.6h-3.1v1.7H66.8z M66.6,15.5v-1.6h-2.8v1.6H66.6z M66.6,17.8v-1.7h-2.8v1.7H66.6z M70.5,3.9
	c0-0.3,0.2-0.5,0.6-0.5s0.6,0.2,0.6,0.5v12.5c0,0.3-0.2,0.5-0.6,0.5s-0.6-0.2-0.6-0.5V3.9L70.5,3.9z M71.2,21.3c2.3-0.3,3-1.4,3-3.6
	v-16c0-0.3,0.2-0.6,0.6-0.6s0.6,0.2,0.6,0.6v16.5c0,2.6-1.8,4-4.2,3.5C71,21.6,71,21.3,71.2,21.3L71.2,21.3z"/>
<path class="st0" d="M85.5,21.3V2.1c0-0.4,0.2-0.6,0.6-0.6s0.6,0.2,0.6,0.6v0.2h15V2.1c0-0.4,0.2-0.6,0.6-0.6s0.6,0.2,0.6,0.6v19
	c0,0.4-0.2,0.6-0.6,0.6s-0.6-0.2-0.6-0.6v-0.7h-15v0.9c0,0.3-0.2,0.6-0.6,0.6S85.5,21.6,85.5,21.3z M101.7,19.8V3h-15v16.8
	C86.7,19.8,101.7,19.8,101.7,19.8z M87.9,14.1h8.5v-0.8c0-0.4,0.2-0.6,0.6-0.6s0.6,0.2,0.6,0.6v0.8h2c0.4,0,0.7-0.2,1-0.2
	s0.5,0.2,0.5,0.5s-0.2,0.5-0.5,0.5s-0.6-0.2-1-0.2h-2.1V17c0,1.2-1,2.4-2.9,2c-0.2,0-0.2-0.3,0-0.3c1.4-0.2,1.7-0.9,1.7-2v-2h-8.5
	c-0.2,0-0.3-0.1-0.3-0.3S87.8,14.1,87.9,14.1z M87.9,4.8h5.7V4.1c0-0.3,0.2-0.6,0.6-0.6s0.6,0.2,0.6,0.6v0.7h4.7
	c0.4,0,0.7-0.2,1-0.2s0.5,0.2,0.5,0.5s-0.2,0.5-0.5,0.5s-0.6-0.2-1-0.2h-4.8v1.2h3.5V6.5c0-0.3,0.2-0.6,0.6-0.6s0.5,0.2,0.5,0.6v4.1
	c0,0.3-0.2,0.5-0.5,0.5s-0.6-0.2-0.6-0.5v-0.1h-3.5V12c0.9-0.1,1.8-0.2,2.8-0.3c0.2,0,0.2,0.3,0.1,0.3c-2.8,0.9-5.9,1.1-9.2,1
	c-0.7,0-0.6-0.9,0.1-0.9c1.8,0.1,3.5,0.1,5.2-0.1v-1.6h-3.4v0.1c0,0.3-0.2,0.6-0.5,0.6s-0.6-0.2-0.6-0.6V6.5c0-0.3,0.2-0.6,0.6-0.6
	s0.5,0.2,0.5,0.6v0.1h3.4V5.4H88c-0.2,0-0.3-0.1-0.3-0.3S87.8,4.8,87.9,4.8L87.9,4.8z M90.2,15.3c1.1,0.2,2.5,0.8,3.1,1.7
	c0.5,0.8-0.4,1.5-1,0.8c-0.9-1.1-1.7-1.8-2.2-2.2C90,15.5,90.1,15.2,90.2,15.3z M93.6,8.3v-1h-3.4v1H93.6z M93.6,9.9v-1h-3.4v1H93.6
	z M98.3,8.3v-1h-3.5v1H98.3z M98.3,9.9v-1h-3.5v1H98.3z M97.7,11c1,0.2,2.1,0.9,2.5,1.7c0.4,0.7-0.4,1.3-0.9,0.6
	c-0.4-0.6-1.1-1.4-1.8-2C97.5,11.2,97.5,11,97.7,11L97.7,11z"/>
<path class="st0" d="M112.4,2.3h4.7V2.3c0.1-0.8,1.2-0.7,1.2,0c-0.1,2.5-0.8,4.8-2.6,6.3c3.3,2.1,4,5.5,2.5,7.3
	c-0.9,1.1-2.4,1.2-3.2,0.4c-0.1-0.1-0.1-0.4,0.1-0.3c0.9,0.2,1.6-0.1,2.1-0.9c1.2-1.7-0.2-4.7-2.2-6.3c-0.1-0.1-0.1-0.2-0.1-0.4
	c1.4-1.5,1.8-3.3,2-5.5h-4.7c-0.2,0-0.3-0.1-0.3-0.3S112.3,2.3,112.4,2.3L112.4,2.3z M113.1,4.2c0-0.3,0.2-0.6,0.6-0.6
	s0.6,0.2,0.6,0.6v17.2c0,0.3-0.2,0.6-0.6,0.6s-0.6-0.2-0.6-0.6V4.2z M122,21.1c1.1,0,2.8-0.1,3.5-1.6c0.5-1.1,0.6-2.5,0.4-4.1
	c-2.2,2.4-5.5,3.8-8.8,4c-0.2,0-0.3-0.3-0.1-0.4c3.3-0.8,6.3-2.2,8.6-5.1c-0.2-0.7-0.3-1.4-0.6-2c-1.6,1.9-3.8,2.9-5.9,3.3
	c-0.2,0-0.3-0.3-0.1-0.4c2-0.8,4-2.2,5.4-4.2c-0.3-0.7-0.6-1.3-0.9-1.8c-1.4,1.3-3.1,2.1-4.8,2.5c-0.2,0.1-0.3-0.3-0.1-0.4
	c2.5-1.2,4.4-2.9,5.5-4.7h-5.1c-0.2,0-0.3-0.1-0.3-0.3c0-0.2,0.1-0.3,0.3-0.3h6.6c1.2-1.2,2-2.7,2.5-4c0.3-0.7,1.4-0.4,1.2,0.4
	c-0.4,1.2-1.6,2.8-2.8,3.6h3.4c0.4,0,0.7-0.2,1-0.2s0.5,0.2,0.5,0.5c0,0.3-0.2,0.5-0.5,0.5s-0.6-0.2-1-0.2h-4.5
	c-0.4,0.7-0.9,1.4-1.4,2c0.6,0.8,1.1,1.7,1.5,2.7c1.5,3.4,3.4,5.4,6,7.3c0.9,0.6,0.1,1.8-0.7,1.2c-2-1.5-3.2-3-4.2-5
	c0.5,2.3,0.4,4.6-0.4,5.9c-1.1,1.8-3.2,1.8-4.6,1.2C121.7,21.4,121.8,21.1,122,21.1L122,21.1z M120.7,1.2c1.3,0.5,2.8,1.8,3.2,3.1
	c0.2,0.8-0.8,1.2-1.2,0.4c-0.6-1.2-1.4-2.3-2.2-3.2C120.3,1.3,120.5,1.1,120.7,1.2z M129.1,8c0.4-0.8,1.5-0.3,1.1,0.6
	c-0.6,1.4-2,2.4-3.5,3.1c-0.2,0.1-0.3-0.2-0.2-0.3C127.7,10.2,128.4,9.4,129.1,8L129.1,8z"/>
</svg>
