<?xml version="1.0" encoding="utf-8"?>
<!-- Generator: Adobe Illustrator 26.5.1, SVG Export Plug-In . SVG Version: 6.00 Build 0)  -->
<svg version="1.1" id="_圖層_4" xmlns="http://www.w3.org/2000/svg" xmlns:xlink="http://www.w3.org/1999/xlink" x="0px" y="0px"
	 viewBox="0 0 368.4 91.8" style="enable-background:new 0 0 368.4 91.8;" xml:space="preserve">
<style type="text/css">
	.st0{fill:none;}
	.st1{fill:#AD9F79;}
	.st2{fill:#958557;}
	.st3{fill:#FFFFFF;}
	.st4{fill:#686357;}
</style>
<g>
	<path class="st0" d="M49.3,26.1c-0.5,0-1,0-1.5-0.1v39.6c0.5-0.1,0.9-0.1,1.4-0.1c4.3,0,7.8,3.3,8.2,7.4h298.8V19H57.4
		C56.9,23,53.4,26.1,49.3,26.1z"/>
	<path class="st1" d="M55.4,17c0,0.3,0.1,0.6,0.1,0.9c0,3.4-2.8,6.2-6.2,6.2c-0.5,0-1-0.1-1.5-0.2c-2.7-0.7-4.7-3.1-4.7-6
		c0-0.3,0-0.6,0.1-0.9H1.8v57.8h41.3C43.1,74.4,43,74,43,73.6c0-2.9,2-5.4,4.8-6c0.5-0.1,0.9-0.2,1.4-0.2c3.4,0,6.2,2.8,6.2,6.2
		c0,0.4,0,0.8-0.1,1.2h311.3V17H55.4z M356.2,72.8H57.4c-0.4-4.2-3.9-7.4-8.1-7.4c-0.5,0-1,0.1-1.4,0.1V25.9c0.5,0.1,1,0.1,1.5,0.1
		c4.1,0,7.6-3.1,8.1-7.1h298.8V72.8L356.2,72.8z"/>
	<g>
		<circle class="st2" cx="203.5" cy="45.9" r="2.5"/>
		<path class="st2" d="M207,35.8c0,4,0.9,7.6,3,10.1c-2.1,2.5-3,6.1-3,10.1c0,2,0.3,3.8,0.9,5.5c0-4.7,2.4-9.6,6.2-12.7
			c0.9-0.7,1.8-1.3,2.8-1.8c1-0.5,2.1-0.8,3.1-1c-1-0.2-2-0.5-3.1-1c-1-0.5-1.9-1.1-2.8-1.8c-3.8-3.1-6.2-8-6.2-12.7
			C207.3,32,207,33.8,207,35.8z"/>
	</g>
</g>
<g>
	<path class="st3" d="M13.8,33.8l1.4,0.6c-0.2,2.5-0.7,6.3-1.6,10.2l-1.4-0.9C13.1,40.2,13.6,36,13.8,33.8z M12.5,23.1l1-0.9
		c0.5,1.1,0.9,2.1,1.4,3.7l-1.2,1.1C13.3,25.3,12.9,24.1,12.5,23.1z M13.6,27.7c0.5,1.1,0.9,2.1,1.4,3.7l-1.2,1.1
		c-0.4-1.7-0.7-2.8-1.1-3.9L13.6,27.7L13.6,27.7z M15.1,28.1h3.1v-3.5c-0.9,0.1-1.7,0.3-2.6,0.4l-0.4-1.4c2.5-0.3,5.1-0.8,6.6-1.3
		l0.6,1.4c-0.7,0.2-1.7,0.5-2.9,0.7v3.9h3.1v1.4h-3.1v4h2.5v10.5h-6.4V33.5h2.5v-4h-3.1L15.1,28.1L15.1,28.1z M20.7,42.5v-7.7h-3.5
		v7.7H20.7z"/>
	<path class="st3" d="M25.5,44.2l-0.1-1.5c0.8-0.1,1.6-0.3,2.3-0.5v-3.2h-1.9v-1.3h1.9v-1.9h-1.9v-8.3h1.9v-1.4h-2.1v-1.4h2.1v-1
		c-0.5,0.1-1.1,0.1-1.6,0.1l-0.3-1.2c1.6-0.1,3.6-0.4,4.6-0.8l0.5,1.2c-0.5,0.2-1.1,0.3-1.9,0.5v1.1h2.1v1.4H29v1.4h1.9v8.3H29v1.9
		h1.9v1.3H29v2.8c0.6-0.2,1.2-0.4,1.8-0.6v1.4C29.7,43.2,27.7,43.8,25.5,44.2z M27.8,31v-2H27v2H27.8z M27.8,34.6v-2.2H27v2.2H27.8z
		 M29.7,31v-2H29v2H29.7z M29.7,34.6v-2.2H29v2.2H29.7z M32.4,28.6h-1.2v-1.4h1.3c0-1.6,0-3.3,0-5.1l1.3,0.2v4.9H36
		c0,5.5,0,10.5-0.3,14.6c-0.1,2.2-0.8,3.3-3.2,2.5v-1.7c1.4,0.8,1.7,0.8,1.8-1.2c0.2-3.5,0.3-8.9,0.3-12.9h-1
		c-0.1,7.1-0.5,11.6-1.9,16.1l-1.2-1.1C31.9,39.5,32.3,34.8,32.4,28.6L32.4,28.6z"/>
	<path class="st3" d="M12.4,48.4H16V68h-3.6C12.4,68,12.4,48.4,12.4,48.4z M14.7,57v-7.2h-1.1V57H14.7z M14.7,66.6v-8.2h-1.1v8.2
		H14.7z M20.3,54.3h2.5v1.4h-6.4v-1.4h2.5v-3.1h-2.1v-1.4h2.1v-2.7h1.5v2.7h2.1v1.4h-2.1C20.3,51.3,20.3,54.3,20.3,54.3z M16.5,57.9
		H20v-1.5h1.5v1.5h1.2v1.4h-1.2v7.4c0,2.3-0.9,3.8-3.7,2.6l0-1.9c1.9,1.2,2.2,1.3,2.2-1.3v-6.8h-3.5V57.9z M17.8,60.2
		c0.6,1.4,1,2.7,1.5,4.9L18,66.1c-0.4-2.2-0.8-3.7-1.2-5L17.8,60.2L17.8,60.2z"/>
	<path class="st3" d="M30.3,47.4v8.8H27v13.4h-1.4V47.4C25.6,47.4,30.3,47.4,30.3,47.4z M29,51.1v-2.3h-2v2.3H29z M29,54.9v-2.5h-2
		v2.5H29z M28.2,57.6h5.2v9.7h-5.1C28.2,67.3,28.2,57.6,28.2,57.6z M32,61.7V59h-2.5v2.8H32z M32,65.9V63h-2.5v2.9H32z M31.2,47.4
		h4.7v17.6c0,2.3-0.5,3.8-2.5,4.6l-0.8-1.3c1.8-0.8,1.8-1.6,1.8-3.6v-8.6h-3.3C31.2,56.2,31.2,47.4,31.2,47.4z M34.5,51.1v-2.3h-2
		v2.3H34.5z M34.5,54.9v-2.5h-2v2.5H34.5z"/>
</g>
<g>
	<g>
		<path class="st4" d="M76.1,56.9V33.5c0-3.3,2.5-5.8,5.8-5.8s5.8,2.5,5.8,5.8v23.5c0,3.3-2.5,5.8-5.8,5.8S76.1,60.3,76.1,56.9z
			 M79.2,56.5c0,2,1.2,3.3,2.7,3.3s2.8-1.3,2.8-3.3v-23c0-1.6-1.2-2.8-2.8-2.8s-2.7,1.2-2.7,2.8V56.5z"/>
		<path class="st4" d="M92.8,55.3v-2.2h3.2v1.8c0,3.6,0.9,5,2.7,5c2.2,0,2.8-2.2,2.8-5v-9.1c-0.6,1.7-2.3,2.4-3.2,2.4
			c-3.9,0-5.3-3.8-5.3-7.7V34c0-3.7,2.8-6.4,5.8-6.4s5.8,2.6,5.8,6.4v21.2c0,4.4-2.1,7.5-5.8,7.5C95.2,62.7,92.8,60,92.8,55.3
			L92.8,55.3z M95.9,40c0,3.6,0.5,5.2,2.3,5.2s3.2-1.7,3.2-5.2v-5.5c0-2.5-1-3.9-2.7-3.9s-2.8,1.4-2.8,3.9L95.9,40L95.9,40z"/>
		<path class="st4" d="M110.9,64H108l12.5-36.8h2.8L110.9,64z"/>
		<path class="st4" d="M127.5,62.3v-3.1l5.5-12.6c2.5-5.8,3.3-9,3.3-11.8s-0.9-4-2.9-4s-2.8,2-2.8,4.5v3.2h-3.2v-3.2
			c0-4.9,2.8-7.6,6-7.6s6.1,2,6.1,7.5c0,2.2-1,6.7-3.7,12.7l-4.9,11.2h8.5v3.2C139.3,62.3,127.5,62.3,127.5,62.3z"/>
		<path class="st4" d="M155.3,48.8v7.2c0,3.5-2.1,6.8-5.9,6.8s-5.8-3.3-5.8-6.8v-7.2c0-2.4,1.1-4.5,2.8-5.6c-1.4-1-2.5-2.8-2.5-5
			v-4.6c0-3.2,2.1-5.9,5.4-5.9s5.5,2.5,5.5,5.9v4.6c0,2.2-1.1,4-2.6,5C154.1,44.3,155.3,46.4,155.3,48.8L155.3,48.8z M149.4,59.8
			c2.3,0,2.8-1.6,2.8-4.3v-6.3c0-2.5-0.7-4.6-2.8-4.6s-2.8,2.1-2.8,4.6v6.3C146.6,58.2,147.6,59.8,149.4,59.8z M149.4,41.9
			c1.5,0,2.5-1.3,2.5-4.3v-3.3c0-2.4-0.3-3.7-2.5-3.7c-2,0-2.4,1.4-2.4,3.7v3.3C147,40.7,148,41.9,149.4,41.9z"/>
		<path class="st4" d="M165.3,52.9c0-4.1,1-8.6,3.1-11.9l1.3,0.8c-2.3,3.6-2.9,7.7-2.9,11.1s0.6,7.2,2.9,10.9l-1.3,0.9
			C166.3,61.3,165.3,57,165.3,52.9z"/>
		<path class="st4" d="M178.5,46.5h4.6v1.5h-10.8v-1.5h4.6v-4.9h1.5L178.5,46.5L178.5,46.5z M175.3,51.3l1.4,0.6
			c-0.4,2.9-1.4,7.7-2.9,12.1l-1.3-1.1C173.9,58.7,174.9,54.1,175.3,51.3L175.3,51.3z M179.9,51c0.9,2.6,2.3,7.8,3.2,11.9l-1.4,1.1
			c-0.8-4.3-2.1-9.5-2.9-12L179.9,51z"/>
		<path class="st4" d="M189,52.9c0-3.4-0.6-7.5-2.9-11.1l1.3-0.8c2.1,3.2,3.1,7.7,3.1,11.8s-0.9,8.4-3.1,11.7l-1.3-0.9
			C188.4,60.1,189,56.3,189,52.9z"/>
	</g>
	<g>
		<path class="st4" d="M238.2,62.3h-3.1V31.7c-1.3,1.3-3.3,2.9-5.3,3.7v-3.3c1.7-0.9,4.1-3,4.8-4.1h3.5L238.2,62.3L238.2,62.3z"/>
		<path class="st4" d="M245.4,56.9V33.5c0-3.3,2.5-5.8,5.8-5.8s5.8,2.5,5.8,5.8v23.5c0,3.3-2.5,5.8-5.8,5.8S245.4,60.3,245.4,56.9z
			 M248.5,56.5c0,2,1.2,3.3,2.7,3.3s2.8-1.3,2.8-3.3v-23c0-1.6-1.2-2.8-2.8-2.8s-2.7,1.2-2.7,2.8V56.5z"/>
		<path class="st4" d="M264,64h-2.8l12.5-36.8h2.8L264,64z"/>
		<path class="st4" d="M280.5,56.9V33.5c0-3.3,2.5-5.8,5.8-5.8s5.8,2.5,5.8,5.8v23.5c0,3.3-2.5,5.8-5.8,5.8S280.5,60.3,280.5,56.9z
			 M283.6,56.5c0,2,1.2,3.3,2.7,3.3s2.8-1.3,2.8-3.3v-23c0-1.6-1.2-2.8-2.8-2.8s-2.7,1.2-2.7,2.8V56.5z"/>
		<path class="st4" d="M304.4,43.8c2.4,1,4,3,4,6.7v4.7c0,5-2.7,7.6-5.9,7.6s-5.9-2.7-5.9-6.8v-3.5h3.1v2.9c0,2.8,0.7,4.5,2.8,4.5
			s2.9-1.8,2.9-5.3v-3.2c0-3.2-1.8-6.1-4.9-6.1v-2.6c3.5,0,4.9-2.9,4.9-5.5V35c0-2.6-0.9-4.4-2.9-4.4s-2.7,1.4-2.7,4v3.2h-3v-4
			c0-3.9,2.4-6.2,5.7-6.2s5.9,2.5,5.9,6.6v3.7C308.4,40.8,306.9,42.8,304.4,43.8L304.4,43.8z"/>
		<path class="st4" d="M318.4,52.9c0-4.1,1-8.6,3-11.9l1.3,0.8c-2.3,3.6-2.9,7.7-2.9,11.1s0.6,7.2,2.9,10.9l-1.3,0.9
			C319.4,61.3,318.4,57,318.4,52.9z"/>
		<path class="st4" d="M325.9,42.6h9.8v20.8h-9.8V42.6z M334.2,61.9v-5.4h-1c-1,0-1.9-1-1.9-2.2V44h-1.2c0,5.9-0.3,11.2-1.8,14.4
			l-1-1.2v4.7L334.2,61.9L334.2,61.9z M328.9,44h-1.5V57C328.6,54,328.9,49.8,328.9,44z M333.5,55.1h0.7V44h-1.5V54
			C332.8,54.7,332.9,55.1,333.5,55.1z"/>
		<path class="st4" d="M342.1,52.9c0-3.4-0.6-7.5-2.9-11.1l1.3-0.8c2,3.2,3,7.7,3,11.8s-1,8.4-3,11.7l-1.3-0.9
			C341.5,60.1,342.1,56.3,342.1,52.9z"/>
	</g>
</g>
</svg>
