<?xml version="1.0" encoding="utf-8"?>
<!-- Generator: Adobe Illustrator 26.5.1, SVG Export Plug-In . SVG Version: 6.00 Build 0)  -->
<svg version="1.1" id="_圖層_5" xmlns="http://www.w3.org/2000/svg" xmlns:xlink="http://www.w3.org/1999/xlink" x="0px" y="0px"
	 viewBox="0 0 368.4 91.8" style="enable-background:new 0 0 368.4 91.8;" xml:space="preserve">
<style type="text/css">
	.st0{fill:#686357;}
	.st1{fill:#AD9F79;}
</style>
<g>
	<path class="st0" d="M36.8,24.7c2.3-1.1,3.7-2.8,4.3-5c-1.4,0.6-3,1-4.5,1.1C36,20.9,36,20,36.5,20c1.8-0.2,3.4-0.6,4.8-1.2
		c0.2-0.8,0.2-1.7,0.3-2.7h-4.3c-0.1,0-0.2-0.1-0.2-0.2c0-0.1,0.1-0.2,0.2-0.2h4.3v-3.1h-4.9c-0.1,0-0.2-0.1-0.2-0.2
		s0.1-0.2,0.2-0.2h4.9V9.3c0-0.3,0.2-0.5,0.5-0.5s0.5,0.2,0.5,0.5v6.9c0,0.8,0,1.5-0.1,2.1c0.4-0.2,0.8-0.4,1.1-0.6
		c0.1-0.1,0.3,0.1,0.2,0.2c-0.4,0.4-0.9,0.8-1.4,1.2C41.6,22,39.9,24,36.9,25C36.7,25.1,36.6,24.8,36.8,24.7L36.8,24.7z M45.3,9.3
		c0-0.3,0.2-0.5,0.5-0.5s0.5,0.2,0.5,0.5V12h3.9c0.4,0,0.6-0.1,0.8-0.1s0.4,0.2,0.4,0.4s-0.2,0.4-0.4,0.4s-0.5-0.1-0.8-0.1h-3.9v3.1
		h3.3c0.4,0,0.6-0.1,0.8-0.1s0.4,0.2,0.4,0.4c0,0.2-0.2,0.4-0.4,0.4s-0.5-0.1-0.8-0.1h-3.3v3.2h4.2c0.4,0,0.6-0.1,0.8-0.1
		s0.4,0.2,0.4,0.4S51.6,20,51.4,20s-0.5-0.1-0.8-0.1h-4.2v4.7c0,0.3-0.2,0.5-0.5,0.5s-0.5-0.2-0.5-0.5L45.3,9.3L45.3,9.3z"/>
	<path class="st0" d="M55.2,11c0-0.3,0.2-0.5,0.5-0.5s0.5,0.2,0.5,0.5v0.2h12V11c0-0.3,0.2-0.5,0.5-0.5s0.5,0.2,0.5,0.5v3.3
		c0,0.3-0.2,0.5-0.5,0.5s-0.5-0.2-0.5-0.5v-2.6h-12v2.5c0,0.3-0.2,0.5-0.5,0.5s-0.5-0.2-0.5-0.5C55.2,14.2,55.2,11,55.2,11z
		 M57.6,24.4V13.5c0-0.3,0.2-0.5,0.5-0.5s0.5,0.2,0.5,0.5v0.2h6.9v-0.2c0-0.3,0.2-0.5,0.5-0.5s0.5,0.2,0.5,0.5v4
		c0,0.3-0.2,0.5-0.5,0.5s-0.5-0.2-0.5-0.5v-0.2h-6.9v2.1h7.8v-0.2c0-0.3,0.2-0.5,0.5-0.5s0.5,0.2,0.5,0.5v5c0,0.3-0.2,0.5-0.5,0.5
		s-0.5-0.2-0.5-0.5v-0.9h-7.8v1c0,0.3-0.2,0.5-0.5,0.5S57.6,24.7,57.6,24.4L57.6,24.4z M65.5,16.9v-2.6h-6.9v2.6H65.5z M66.4,22.9
		v-3h-7.8v3H66.4z M60.5,8.6c1.1,0.1,2.2,0.7,2.7,1.5c0.4,0.6-0.3,1.2-0.8,0.6c-0.6-0.6-1.3-1.3-2-1.8C60.3,8.8,60.4,8.6,60.5,8.6z"
		/>
	<path class="st0" d="M72.4,24.7c1.8-1.1,3.4-2.7,4.3-4.9c0.8-1.9,1.1-4,1.3-6.6h-5c-0.2,0-0.3-0.1-0.3-0.2c0-0.2,0.1-0.3,0.3-0.3
		h13.5c0.4,0,0.6-0.2,0.9-0.2s0.4,0.2,0.4,0.4s-0.2,0.4-0.4,0.4s-0.5-0.2-0.8-0.2H79c-0.1,2.8-0.5,5-1.4,6.9c-1,2.4-2.9,4-5.1,4.8
		C72.4,25,72.3,24.8,72.4,24.7L72.4,24.7z M78.1,8.6c1.3,0.3,3.1,1.6,3.6,2.7c0.3,0.6-0.5,1.1-0.9,0.6c-0.7-1-1.8-2.3-2.8-3
		C77.9,8.8,78,8.6,78.1,8.6z M79.5,16.1h5.2l0-0.4c0-0.7,1.1-0.6,1,0.1l-0.3,4.8c-0.2,3.5-2.7,4.4-5.6,3.7c-0.2,0-0.1-0.3,0-0.3
		c3.2,0,4.3-1.1,4.5-4l0.2-3.5h-5.2c-0.1,0-0.2-0.1-0.2-0.3C79.2,16.2,79.4,16.1,79.5,16.1L79.5,16.1z"/>
	<path class="st0" d="M90.7,24.6c3.1-0.6,5.6-1.6,6.7-3.8H91c-0.1,0-0.2-0.1-0.2-0.2s0.1-0.2,0.2-0.2h6.6c0.1-0.3,0.2-0.6,0.3-1
		c0.1-0.6,1-0.5,0.9,0.1c0,0.3-0.1,0.6-0.2,0.9h6.3c0.4,0,0.6-0.1,0.8-0.1c0.2,0,0.4,0.2,0.4,0.4S106,21,105.8,21
		c-0.2,0-0.4-0.1-0.8-0.1h-6.5c-1.1,2.8-4.3,4.1-7.7,4.1C90.6,24.9,90.5,24.7,90.7,24.6L90.7,24.6z M92.9,10.7
		c0-0.3,0.2-0.5,0.4-0.5s0.5,0.2,0.5,0.5v0.2h9.4v-0.2c0-0.3,0.2-0.5,0.4-0.5s0.5,0.2,0.5,0.5v8.4c0,0.3-0.2,0.5-0.5,0.5
		s-0.4-0.2-0.4-0.5v-7.8h-9.4v7.8c0,0.3-0.2,0.5-0.5,0.5s-0.4-0.2-0.4-0.5C92.9,19.1,92.9,10.7,92.9,10.7z M94.7,15.2h3.4v-1.4
		c0-0.2,0.2-0.4,0.4-0.4s0.4,0.2,0.4,0.4v1.4h2.6c0.3,0,0.6-0.1,0.8-0.1s0.4,0.1,0.4,0.4c0,0.2-0.2,0.4-0.4,0.4s-0.4-0.1-0.8-0.1
		h-2.6v2.6c0,0.2-0.2,0.4-0.4,0.4s-0.4-0.2-0.4-0.4v-1.9c-0.7,1-1.9,1.8-3.4,2.3c-0.1,0-0.2-0.2-0.1-0.3c1.4-0.8,2.4-1.8,3.1-2.7
		h-2.9c-0.1,0-0.2-0.1-0.2-0.2C94.5,15.3,94.6,15.2,94.7,15.2L94.7,15.2z M94.9,13c1.8-0.1,4.4-0.6,6.1-1.2c0.5-0.2,0.7,0.5,0.2,0.8
		c-1.4,0.6-4.6,0.9-6.4,0.7C94.8,13.2,94.8,13,94.9,13L94.9,13z M95.8,13.4c0.6,0.2,1.2,0.6,1.4,1c0.3,0.5-0.4,0.9-0.7,0.3
		c-0.2-0.4-0.5-0.8-0.8-1.1C95.6,13.5,95.7,13.4,95.8,13.4z M98.7,8.7c0.4-0.5,1.2,0,0.8,0.6c-0.4,0.6-1.4,1.1-2.2,1.2
		c-0.2,0-0.2-0.2-0.1-0.3C97.8,9.8,98.3,9.2,98.7,8.7z M99.2,21.2c1.8,1.5,4.1,2.1,6.7,2.6c0.7,0.1,0.6,1.2-0.2,1.1
		c-2.7-0.4-5.2-1.5-6.7-3.4C98.8,21.3,99,21.1,99.2,21.2z M99.6,16.2c0.9,0.2,2.1,0.7,2.6,1.4c0.3,0.5-0.2,1-0.7,0.6
		c-0.7-0.7-1.4-1.4-2-1.8C99.4,16.3,99.4,16.2,99.6,16.2L99.6,16.2z M100.6,13.4c0.3-0.5,1-0.1,0.7,0.4c-0.3,0.4-0.8,0.9-1.6,1.2
		c-0.1,0-0.2-0.1-0.1-0.2C100,14.4,100.3,13.9,100.6,13.4z"/>
	<path class="st0" d="M113.1,14.7h-3.6c-0.1,0-0.2-0.1-0.2-0.2s0.1-0.2,0.2-0.2h3.9v-2.4c0-0.3,0.2-0.5,0.5-0.5
		c0.3,0,0.5,0.2,0.5,0.5v2.4h2.7c0.4,0,0.6-0.1,0.8-0.1s0.4,0.2,0.4,0.4s-0.2,0.4-0.4,0.4s-0.4-0.1-0.8-0.1h-2.7v9.8
		c0,0.3-0.2,0.5-0.5,0.5c-0.3,0-0.5-0.2-0.5-0.5v-7.7c-1,2.2-2.6,4.3-4.4,5.4c-0.2,0.1-0.3-0.1-0.2-0.2
		C110.7,20,112.2,17.7,113.1,14.7L113.1,14.7z M116.5,8.9c0.6-0.3,1,0.5,0.5,0.8c-1.9,1.2-4.7,1.8-7.3,1.8c-0.2,0-0.2-0.2,0-0.3
		C112,10.8,114.7,9.9,116.5,8.9L116.5,8.9z M115.1,15.9c1,0.6,2.2,1.5,2.6,2.7c0.2,0.6-0.7,1-0.9,0.4c-0.5-1-1-1.8-1.8-2.8
		C114.8,16,114.9,15.8,115.1,15.9z M119.1,10.6c0-0.3,0.2-0.4,0.4-0.4s0.5,0.2,0.5,0.4v10.4c0,0.3-0.2,0.5-0.5,0.5s-0.4-0.2-0.4-0.5
		V10.6z M120,24.5c1.9-0.2,2.5-1.1,2.5-3V9.3c0-0.3,0.2-0.5,0.5-0.5c0.3,0,0.5,0.2,0.5,0.5v12.6c0,2.2-1.5,3.4-3.5,2.9
		C119.8,24.7,119.8,24.5,120,24.5L120,24.5z"/>
	<path class="st0" d="M127.1,24.6c2.9-1.1,5.3-2.5,7.2-4.3c-1.6-1.6-2.8-3.7-3.6-6.2c-0.1-0.2,0.2-0.3,0.3-0.1
		c1.2,2.4,2.4,4.2,3.9,5.7c1.5-1.7,2.5-3.9,3.2-6.6h-10.4c-0.2,0-0.3-0.1-0.3-0.3c0-0.1,0.1-0.2,0.3-0.2h13.3c0.4,0,0.6-0.2,0.9-0.2
		s0.4,0.2,0.4,0.4s-0.2,0.4-0.4,0.4s-0.5-0.2-0.9-0.2h-1.8c-0.7,3-1.9,5.4-3.5,7.3c1.7,1.4,3.8,2.5,6.6,3.3c0.7,0.2,0.5,1.3-0.3,1.1
		c-2.7-0.9-5.1-2-7-3.7c-2,2-4.6,3.3-7.8,4C126.9,24.9,126.8,24.7,127.1,24.6L127.1,24.6z M132.9,8.7c1.1,0.4,2.5,1.2,3.1,2.3
		c0.4,0.8-0.4,1.3-0.9,0.6c-0.7-1-1.7-2.1-2.4-2.7C132.7,8.8,132.8,8.7,132.9,8.7L132.9,8.7z"/>
	<path class="st0" d="M145.4,23.4h7.2v-4.9h-5c-0.1,0-0.3-0.1-0.3-0.3c0-0.2,0.1-0.3,0.3-0.3h5v-4.4h-3c-0.2,0-0.3-0.1-0.3-0.2
		c0-0.2,0.1-0.3,0.3-0.3h3V9.2c0-0.3,0.2-0.5,0.5-0.5s0.5,0.2,0.5,0.5V13h4.3c0.4,0,0.7-0.2,0.9-0.2c0.2,0,0.4,0.2,0.4,0.4
		c0,0.3-0.2,0.4-0.4,0.4c-0.2,0-0.5-0.2-0.9-0.2h-4.3v4.4h3.7c0.4,0,0.7-0.2,0.9-0.2s0.4,0.2,0.4,0.5c0,0.2-0.2,0.4-0.4,0.4
		s-0.5-0.1-0.9-0.1h-3.7v5h5.7c0.4,0,0.7-0.2,0.9-0.2s0.5,0.2,0.5,0.5c0,0.2-0.2,0.4-0.5,0.4s-0.5-0.2-0.9-0.2h-14
		c-0.2,0-0.3-0.1-0.3-0.3C145.2,23.5,145.3,23.4,145.4,23.4L145.4,23.4z M145.6,17c1.7-1.9,2.6-4.4,3.1-7.2c0.1-0.7,1.1-0.5,1,0.2
		c-0.4,2.7-1.7,5.7-3.9,7.2C145.6,17.4,145.5,17.2,145.6,17L145.6,17z"/>
	<path class="st0" d="M165.8,23.9V9.8c0-0.3,0.2-0.5,0.5-0.5c0.3,0,0.5,0.2,0.5,0.5V10h8.8V9.8c0-0.3,0.2-0.5,0.5-0.5
		c0.3,0,0.5,0.2,0.5,0.5v13.9c0,0.3-0.2,0.5-0.5,0.5c-0.3,0-0.5-0.2-0.5-0.5v-1.1h-8.8v1.3c0,0.3-0.2,0.5-0.5,0.5
		C166,24.4,165.8,24.2,165.8,23.9z M175.6,16v-5.5h-8.8V16H175.6z M175.6,22.1v-5.5h-8.8v5.5H175.6z"/>
	<path class="st0" d="M183,14.3v-3.6c0-0.3,0.2-0.4,0.4-0.4s0.5,0.1,0.5,0.4v0.1h11.7c0.3,0,0.6-0.1,0.8-0.1s0.4,0.2,0.4,0.4
		s-0.2,0.4-0.4,0.4s-0.4-0.1-0.8-0.1h-3.9v1.2h2.8v-0.2c0-0.3,0.2-0.4,0.4-0.4s0.4,0.2,0.4,0.4v2.4c0,0.2-0.2,0.4-0.4,0.4
		s-0.4-0.2-0.4-0.4v-0.1h-10.5v0.8h11.9l0.1-0.2c0.2-0.6,1-0.4,0.9,0.2c-0.1,0.6-0.6,1.3-1.5,1.7c-0.1,0-0.2-0.1-0.2-0.2
		c0.3-0.5,0.4-0.7,0.5-1.1h-11.7c0,3.9-0.3,6.8-2.5,9c-0.2,0.2-0.4,0-0.2-0.2C183,22.2,183,19,183,14.3L183,14.3z M183.1,24.6
		c2.4-0.2,4.6-0.7,6.4-1.6c-0.6-0.4-1.2-0.9-1.6-1.4c-0.1-0.1,0.1-0.3,0.2-0.2c0.7,0.5,1.4,0.9,2.2,1.2c1-0.5,1.9-1.2,2.7-2.1h-4
		c-0.1,0-0.2-0.1-0.2-0.2s0.1-0.2,0.2-0.2h4.5l0.2-0.3c0.4-0.5,1.1,0,0.8,0.6c-0.8,1.1-1.9,2-3,2.7c1.7,0.5,3.6,0.7,5.6,0.8
		c0.6,0,0.6,1-0.1,1c-2.2-0.1-4.5-0.4-6.5-1.3c-2,0.9-4.5,1.3-7.2,1.4C182.9,24.9,182.9,24.6,183.1,24.6L183.1,24.6z M186.9,12.6
		v-1.2h-3v1.2H186.9z M186.9,14.2V13h-3v1.1H186.9z M187.9,19c-0.5-0.3-0.8-0.8-0.8-1.5v-0.7c0-0.2,0.2-0.4,0.4-0.4s0.4,0.2,0.4,0.4
		v0.6c0,0.8,0.4,1,1.2,1c0.9,0,1.5,0,2.5,0c0.9,0,1.2-0.3,1.4-0.8c0-0.1,0.2-0.1,0.2,0c0.2,1-0.5,1.6-1.6,1.7c-1,0-1.6,0-2.6,0
		l-0.3,0c-0.9,1.9-2.6,3-4.6,3.6c-0.2,0-0.2-0.2-0.1-0.3C185.9,21.7,187.1,20.5,187.9,19L187.9,19z M186.3,16.7
		c0.1-0.1,0.2-0.1,0.2,0c0,1-0.4,2.1-1.4,2.7c-0.5,0.3-0.9-0.4-0.5-0.7C185.4,18.1,185.9,17.4,186.3,16.7L186.3,16.7z M190.8,12.6
		v-1.2h-3v1.2H190.8z M190.8,14.2V13h-3v1.1H190.8z M188,8.7c1.1,0.1,2.1,0.5,2.6,1c0.5,0.6-0.1,1.3-0.7,0.8c-0.7-0.7-1.3-1.2-2-1.6
		C187.8,8.8,187.9,8.7,188,8.7L188,8.7z M189.3,16.2c0.7,0.1,1.6,0.3,2.1,0.9c0.4,0.5-0.2,1.1-0.7,0.6s-1-0.9-1.5-1.3
		C189.1,16.3,189.1,16.1,189.3,16.2z M194.5,14.2V13h-2.8v1.1H194.5z M193.4,16.7c0.9,0.3,1.9,0.8,2.4,1.7c0.3,0.5-0.4,1-0.8,0.5
		c-0.5-0.8-1.1-1.4-1.7-2C193.2,16.8,193.3,16.6,193.4,16.7z"/>
	<path class="st0" d="M199.5,19.8c2.5-2.1,4.1-4.3,5.1-7.2h-4.3c-0.1,0-0.2-0.1-0.2-0.2s0.1-0.2,0.2-0.2h4.5l0.1-0.2
		c0.2-0.6,1.1-0.3,0.9,0.3c-0.5,1.6-1.2,3.2-2.3,4.6v7.6c0,0.3-0.2,0.5-0.5,0.5s-0.4-0.2-0.4-0.5v-6.6c-0.8,0.8-1.8,1.6-2.9,2.2
		C199.5,20.2,199.3,19.9,199.5,19.8L199.5,19.8z M201.5,8.7c1,0.5,1.8,1.4,2.1,2.4c0.2,0.7-0.7,0.9-0.9,0.3c-0.4-1-0.9-1.9-1.4-2.6
		C201.3,8.8,201.4,8.7,201.5,8.7z M204.2,16.6c0.9,0.4,1.8,1.1,2.1,2c0.2,0.6-0.6,1-0.9,0.4c-0.4-0.8-0.8-1.5-1.4-2.2
		C203.9,16.7,204.1,16.5,204.2,16.6z M208.8,17c0.1-0.6,1-0.6,0.9,0.1c-0.2,3.6-1.5,6.5-5.5,7.8c-0.2,0-0.2-0.2-0.1-0.3
		C207.5,22.9,208.4,20.7,208.8,17L208.8,17z M206.7,10.3c0-0.3,0.2-0.4,0.4-0.4s0.4,0.2,0.4,0.4v0.3h5.4v-0.3c0-0.3,0.2-0.4,0.5-0.4
		s0.4,0.2,0.4,0.4v6.3c0,0.3-0.2,0.5-0.4,0.5s-0.5-0.2-0.5-0.5V16h-1.2v6.5c0,0.8,0.3,1.1,1.2,1.1h0.5c1,0,1.5-0.6,1.7-2.3
		c0-0.2,0.3-0.2,0.3,0c0.2,2.3-0.4,3.2-1.9,3.2h-0.6c-1.2,0-2.1-0.7-2.1-1.9V16h-3.3v0.5c0,0.3-0.2,0.5-0.4,0.5s-0.4-0.2-0.4-0.5
		L206.7,10.3L206.7,10.3z M213.1,15.5V11h-5.4v4.5H213.1z"/>
	<path class="st0" d="M217.6,24.7c1.8-2.5,1.8-5.4,1.8-9.5v-4.7c0-0.3,0.2-0.4,0.4-0.4s0.5,0.2,0.5,0.4v0.2h11.9
		c0.3,0,0.6-0.1,0.8-0.1s0.4,0.2,0.4,0.4s-0.2,0.4-0.4,0.4s-0.5-0.1-0.8-0.1h-11.9v4.3c0,3.9-0.1,6.9-2.5,9.3
		C217.7,25,217.5,24.8,217.6,24.7L217.6,24.7z M221.8,20.6c0-0.1,0.2-0.1,0.3,0c0.1,1.4-0.5,3-1.6,3.7c-0.6,0.3-1-0.4-0.6-0.8
		C220.8,22.7,221.4,21.8,221.8,20.6L221.8,20.6z M222.9,12.1c0.2-0.6,1-0.4,0.9,0.3c-0.4,1.7-1.6,3.6-3,4.3
		c-0.2,0.1-0.3-0.1-0.2-0.2C221.7,15.2,222.5,13.5,222.9,12.1L222.9,12.1z M222.1,16.1c0-0.3,0.2-0.5,0.5-0.5s0.4,0.2,0.4,0.5v3.1
		c0,0.3-0.2,0.5-0.4,0.5s-0.5-0.2-0.5-0.5V16.1z M223.2,20.4c0-0.3,0.2-0.5,0.4-0.5s0.5,0.2,0.5,0.5V22c0,1.1,0.5,1.6,1.8,1.7
		c0.6,0,1.9,0,2.4,0c1.2-0.1,1.6-0.7,1.8-2c0-0.1,0.2-0.1,0.3,0c0.4,1.7-0.6,2.7-2,2.8c-0.6,0-2,0-2.6,0c-1.8-0.1-2.7-0.9-2.7-2.5
		V20.4L223.2,20.4z M225.6,12.1c0.2-0.6,1-0.4,0.9,0.3c-0.4,1.7-1.6,3.6-3,4.3c-0.2,0.1-0.3-0.1-0.2-0.2
		C224.4,15.2,225.2,13.5,225.6,12.1L225.6,12.1z M224.4,8.6c1.1,0.1,2.1,0.4,2.7,1c0.5,0.6-0.2,1.2-0.6,0.8
		c-0.8-0.7-1.4-1.1-2.1-1.5C224.2,8.8,224.3,8.6,224.4,8.6L224.4,8.6z M224.9,16c0-0.3,0.2-0.4,0.5-0.4s0.4,0.2,0.4,0.4v2.3h2.8
		v-1.3h-2.2c-0.1,0-0.2-0.1-0.2-0.2s0.1-0.2,0.2-0.2h2.2v-1.2h-2.2c-0.1,0-0.2-0.1-0.2-0.2s0.1-0.2,0.2-0.2h2.2v-1.2h-1.9
		c-0.1,0-0.2-0.1-0.2-0.2s0.1-0.2,0.2-0.2h1.9c0.4-0.4,0.6-0.8,0.9-1.3c0.3-0.6,1.1-0.2,0.8,0.3c-0.2,0.4-0.6,0.7-1.1,0.9h2
		c0.3,0,0.6-0.1,0.8-0.1s0.4,0.1,0.4,0.4c0,0.2-0.1,0.4-0.4,0.4s-0.4-0.1-0.8-0.1h-1.8v1.2h1.2c0.3,0,0.6-0.1,0.8-0.1
		s0.4,0.1,0.4,0.4s-0.1,0.4-0.4,0.4s-0.4-0.1-0.7-0.1h-1.2v1.2h1.2c0.3,0,0.6-0.1,0.8-0.1s0.4,0.1,0.4,0.4s-0.1,0.4-0.4,0.4
		s-0.4-0.1-0.7-0.1h-1.2v1.3h2.1c0.3,0,0.6-0.1,0.8-0.1s0.4,0.1,0.4,0.4s-0.1,0.4-0.4,0.4s-0.4-0.1-0.8-0.1h-5.8v0.4
		c0,0.3-0.2,0.5-0.4,0.5s-0.5-0.2-0.5-0.5L224.9,16L224.9,16z M226,19.8c1.1,0.2,2.2,0.8,2.8,1.7c0.3,0.5-0.4,1.1-0.8,0.6
		c-0.8-1-1.2-1.5-2.1-2.1C225.8,20,225.9,19.8,226,19.8L226,19.8z M230.7,20.4c1.3,0.5,2.4,1.5,2.9,2.8c0.2,0.6-0.5,1-0.9,0.4
		c-0.6-1.1-1.2-2-2.2-2.9C230.4,20.5,230.5,20.3,230.7,20.4L230.7,20.4z"/>
	<path class="st0" d="M236.4,12.7h2.3V9.1c0-0.3,0.2-0.4,0.5-0.4s0.4,0.2,0.4,0.4v3.6h1.3c0.3,0,0.6-0.1,0.8-0.1s0.4,0.1,0.4,0.4
		c0,0.2-0.1,0.4-0.4,0.4s-0.4-0.1-0.8-0.1h-1.3v3.3c0.7-0.4,1.3-0.8,1.9-1.3c0.2-0.1,0.4,0.1,0.2,0.2c-0.6,0.7-1.3,1.4-2.2,2V22
		c0,2.1-1.2,3.2-3.2,2.7c-0.2,0-0.1-0.3,0-0.3c1.8-0.1,2.2-0.9,2.2-2.8V18c-0.6,0.3-1.4,0.6-2.1,0.8c-0.6,0.2-0.9-0.7-0.2-0.9
		c0.9-0.3,1.7-0.6,2.3-0.9v-3.8h-2.3c-0.1,0-0.2-0.1-0.2-0.2S236.2,12.7,236.4,12.7L236.4,12.7z M241.8,24.6
		c1.7-0.5,3.3-1.2,4.6-2.1c-0.9-0.8-1.6-1.6-1.9-2.5c-0.1-0.1,0.1-0.3,0.2-0.1c0.6,0.9,1.4,1.5,2.3,2.1c0.9-0.8,1.6-1.7,2.1-2.8
		h-4.9c-0.7,2.4-2.1,4.3-4.3,5.6c-0.2,0.1-0.3-0.1-0.2-0.2c2.4-2.1,3.5-4.2,4-7.3h-2.1c-0.1,0-0.2-0.1-0.2-0.2s0.1-0.2,0.2-0.2h2.2
		c0.1-0.5,0.1-1,0.2-1.6h-1.5c-0.1,0-0.2-0.1-0.2-0.2c0-0.1,0.1-0.2,0.2-0.2h7.4c0.3,0,0.6-0.1,0.8-0.1s0.4,0.1,0.4,0.4
		c0,0.2-0.1,0.4-0.4,0.4s-0.4-0.1-0.8-0.1h-5c0,0.6-0.1,1.1-0.1,1.6h5.7c0.3,0,0.6-0.1,0.8-0.1s0.4,0.1,0.4,0.4s-0.1,0.4-0.4,0.4
		s-0.4-0.1-0.8-0.1h-5.8c-0.1,0.5-0.2,1-0.3,1.5h5l0.1-0.2c0.2-0.5,1-0.3,0.9,0.3c-0.4,1.4-1.2,2.7-2.4,3.7c1.1,0.6,2.3,1,3.6,1.4
		c0.6,0.2,0.4,1.1-0.2,1c-1.4-0.3-2.9-1-4.1-1.8c-1.4,1-3.2,1.7-5.2,1.9C241.7,24.9,241.6,24.7,241.8,24.6L241.8,24.6z M242,10.8
		c2.6-0.3,6.2-0.9,8.2-1.9c0.6-0.3,1,0.6,0.5,0.8c-2.1,1.1-5.8,1.5-8.7,1.4C241.9,11.1,241.8,10.8,242,10.8L242,10.8z M243.2,11.6
		c0.8,0.4,1.5,1,1.8,1.9c0.2,0.6-0.6,1-0.9,0.3c-0.3-0.8-0.7-1.5-1.1-2C243,11.7,243.1,11.6,243.2,11.6L243.2,11.6z M245.7,11.3
		c0.8,0.4,1.4,1.1,1.6,2.1c0.1,0.7-0.7,0.9-0.9,0.2c-0.2-0.8-0.5-1.4-0.9-2.1C245.5,11.4,245.6,11.3,245.7,11.3L245.7,11.3z
		 M249.6,11.1c0.2-0.6,1.1-0.4,0.9,0.3c-0.4,1.3-1.1,2.2-2.2,2.8c-0.1,0.1-0.2-0.1-0.1-0.2C248.9,13,249.2,12.2,249.6,11.1
		L249.6,11.1z"/>
	<path class="st0" d="M254.1,16.7c3.5-1.9,6-4.6,7.4-7.8c0.3-0.6,1.2-0.3,1,0.4c-1.3,3.4-4.5,6.5-8.3,7.7
		C254,17,253.9,16.8,254.1,16.7L254.1,16.7z M254.8,23.6h2.9v-6.6c0-0.3,0.2-0.5,0.5-0.5s0.5,0.2,0.5,0.5v6.6h3v-10
		c0-0.3,0.2-0.5,0.5-0.5s0.5,0.2,0.5,0.5v4.5h3.5c0.4,0,0.6-0.1,0.9-0.1s0.4,0.2,0.4,0.4s-0.2,0.4-0.4,0.4s-0.5-0.1-0.8-0.1h-3.5v5
		h5.5c0.4,0,0.6-0.2,0.9-0.2c0.2,0,0.4,0.2,0.4,0.4s-0.2,0.4-0.4,0.4c-0.2,0-0.5-0.2-0.9-0.2h-13.4c-0.2,0-0.3-0.1-0.3-0.3
		C254.6,23.8,254.7,23.6,254.8,23.6L254.8,23.6z M262.7,10.5c2,2.5,4.2,4.1,7.1,5.3c0.7,0.3,0.4,1.3-0.4,1c-2.9-1-5.6-3.4-7-6.1
		C262.4,10.5,262.6,10.4,262.7,10.5z"/>
	<path class="st0" d="M272.5,16.8h4.6v-1.1h-3.6c-0.1,0-0.2-0.1-0.2-0.2s0.1-0.2,0.2-0.2h3.6V14H274c-0.1,0-0.2-0.1-0.2-0.2
		s0.1-0.2,0.2-0.2h3.1v-1.3h-4.3c-0.1,0-0.2-0.1-0.2-0.2c0-0.1,0.1-0.2,0.2-0.2h4.3v-1.3H274c-0.1,0-0.2-0.1-0.2-0.2
		s0.1-0.2,0.2-0.2h3.1V9.1c0-0.3,0.2-0.4,0.5-0.4s0.5,0.2,0.5,0.4V10h2.4V10c0-0.3,0.2-0.4,0.5-0.4s0.5,0.2,0.5,0.4v1.8h0.6
		c0.3,0,0.6-0.1,0.8-0.1s0.4,0.1,0.4,0.4c0,0.2-0.1,0.4-0.4,0.4s-0.4-0.1-0.8-0.1h-0.6v1.9c0,0.3-0.2,0.5-0.5,0.5s-0.5-0.2-0.5-0.5
		V14H278v1.2h2.8c0.3,0,0.5-0.1,0.8-0.1s0.4,0.1,0.4,0.4s-0.1,0.4-0.4,0.4s-0.4-0.1-0.7-0.1H278v1.1h3.8c0.3,0,0.6-0.1,0.8-0.1
		s0.4,0.1,0.4,0.4s-0.1,0.4-0.4,0.4s-0.4-0.1-0.8-0.1h-9.3c-0.1,0-0.2-0.1-0.2-0.2S272.4,16.8,272.5,16.8L272.5,16.8z M282.8,23
		c0.2,0,0.2,0.2,0,0.3c-2.7,1-6.2,1.3-9.9,1.2c-0.6,0-0.6-0.9,0-0.9C276.6,23.6,280,23.5,282.8,23z M274.1,18.2
		c0-0.2,0.2-0.4,0.5-0.4s0.4,0.2,0.4,0.4v0h5.2v0c0-0.3,0.2-0.5,0.5-0.5s0.4,0.2,0.4,0.5v4.2c0,0.2-0.2,0.4-0.4,0.4
		s-0.5-0.2-0.5-0.4v-0.2H275v0.3c0,0.3-0.2,0.5-0.4,0.5s-0.5-0.2-0.5-0.5C274.1,22.5,274.1,18.2,274.1,18.2z M277.2,20v-1.2H275V20
		H277.2z M277.2,21.7v-1.3H275v1.3H277.2z M280.4,11.7v-1.3H278v1.3H280.4z M280.4,13.5v-1.3H278v1.3H280.4z M280.2,20v-1.2H278V20
		H280.2z M280.2,21.7v-1.3H278v1.3H280.2z M283.3,10.9c0-0.2,0.2-0.4,0.4-0.4s0.5,0.2,0.5,0.4v9.8c0,0.2-0.2,0.4-0.5,0.4
		s-0.4-0.2-0.4-0.4V10.9L283.3,10.9z M283.8,24.5c1.8-0.2,2.3-1.1,2.3-2.8V9.1c0-0.3,0.2-0.4,0.5-0.4s0.5,0.2,0.5,0.4V22
		c0,2-1.4,3.2-3.3,2.7C283.6,24.7,283.6,24.5,283.8,24.5z"/>
	<path class="st0" d="M290.5,23c3.9-4.1,5.9-6.2,6.1-8.8c0.3-2.2-1.3-3.1-2.9-3.1c-0.8,0-2.1,0.4-3.1,1.7c-0.1,0.1-0.3,0-0.3-0.1
		c0.6-1.7,2.5-2.6,3.9-2.6c2.1,0,3.9,1.4,3.7,3.8c-0.2,2-1.7,3.8-3,5.3c-1.1,1.3-2.2,2.5-3,3.3h5.1c0.6,0,0.9-0.3,1.1-1
		c0.1-0.2,0.3-0.1,0.3,0c0.1,1.5-0.3,2-1.3,2h-6.5C290.4,23.6,290.2,23.3,290.5,23L290.5,23z"/>
	<path class="st0" d="M300.7,16.9c0-4.4,2-6.8,5.3-6.8s5.4,2.5,5.4,6.8s-2,6.8-5.3,6.8S300.7,21.4,300.7,16.9L300.7,16.9z M306,23.2
		c2.5,0,4.1-2.4,4.1-6.3s-1.7-6.2-4.1-6.2s-4.1,2.4-4.1,6.2S303.6,23.2,306,23.2L306,23.2z"/>
	<path class="st0" d="M313.4,23c3.9-4.1,5.9-6.2,6.1-8.8c0.3-2.2-1.3-3.1-2.9-3.1c-0.8,0-2.1,0.4-3.1,1.7c-0.1,0.1-0.3,0-0.3-0.1
		c0.6-1.7,2.5-2.6,3.9-2.6c2.1,0,3.9,1.4,3.7,3.8c-0.2,2-1.7,3.8-3,5.3c-1.1,1.3-2.2,2.5-3,3.3h5.1c0.6,0,0.9-0.3,1.1-1
		c0.1-0.2,0.3-0.1,0.3,0c0.1,1.5-0.3,2-1.3,2h-6.5C313.2,23.6,313.1,23.3,313.4,23L313.4,23z"/>
	<path class="st0" d="M330,23.8c-0.3,0-0.6-0.3-0.6-0.6v-2.9h-6.6c-0.1,0-0.2-0.1-0.1-0.2l7.4-9.8c0.2-0.2,0.5-0.1,0.5,0.1v9.4h1.3
		c0.2,0,0.3,0.1,0.3,0.3s-0.1,0.3-0.3,0.3h-1.3v2.9C330.6,23.5,330.4,23.8,330,23.8L330,23.8z M329.5,19.6V12l-5.7,7.6H329.5z"/>
</g>
<g>
	<path class="st0" d="M45.1,58.2c0-0.5,0.3-0.8,0.8-0.8s0.8,0.3,0.8,0.8v0.5h3.4v-0.5c0-0.5,0.3-0.8,0.8-0.8s0.8,0.3,0.8,0.8v18.2
		c0,0.4-0.3,0.8-0.8,0.8s-0.8-0.3-0.8-0.8v-1.8h-3.4v2.9c0,0.5-0.3,0.8-0.8,0.8s-0.8-0.3-0.8-0.8C45.1,77.4,45.1,58.2,45.1,58.2z
		 M50.1,73.6V59.5h-3.4v14.2H50.1z M49.5,82.7c4.1-4.4,4.9-9.2,5.5-17.2l0.3-4.2h-2.4c-0.2,0-0.4-0.2-0.4-0.4s0.2-0.4,0.4-0.4h2.5
		l0.3-5.4c0-1.1,1.7-1,1.6,0c-0.1,1.5-0.2,3.5-0.3,5.3h3l0-0.5c0-1.1,1.7-1.1,1.6,0l-0.5,16.6c-0.1,4-2,6.6-6.7,5.6
		c-0.3-0.1-0.3-0.6,0-0.6c3.8,0,4.9-1.8,5.1-5.8L60,61.2h-3l-0.3,4.3c-0.5,7.8-1.5,13.6-6.8,17.6C49.6,83.3,49.3,82.9,49.5,82.7
		L49.5,82.7z M63,58.2c0-0.5,0.3-0.8,0.8-0.8s0.8,0.3,0.8,0.8v0.5h3.8v-0.5c0-0.5,0.3-0.8,0.8-0.8s0.8,0.3,0.8,0.8v23.4
		c0,0.5-0.3,0.8-0.8,0.8s-0.8-0.3-0.8-0.8v-2.2h-3.8v2.6c0,0.5-0.3,0.8-0.8,0.8S63,82.4,63,81.9C63,81.9,63,58.2,63,58.2z
		 M68.4,78.5V59.6h-3.8v18.9H68.4z"/>
	<path class="st0" d="M87.8,58.1c0-0.5,0.3-0.8,0.8-0.8s0.8,0.3,0.8,0.8v0.5h3.4v-0.5c0-0.5,0.3-0.8,0.8-0.8s0.8,0.3,0.8,0.8v18.5
		c0,0.5-0.3,0.8-0.8,0.8s-0.8-0.3-0.8-0.8v-1.2h-3.4v2.1c0,0.5-0.3,0.8-0.8,0.8s-0.8-0.3-0.8-0.8C87.8,77.6,87.8,58.1,87.8,58.1z
		 M92.8,74.6V59.4h-3.4v15.1H92.8z M94,82.7c6.3-3.9,7-7.5,7-15.3h-4.5c-0.3,0-0.4-0.2-0.4-0.4s0.2-0.4,0.4-0.4h4.5v-5.8h-4.8
		c-0.3,0-0.4-0.2-0.4-0.5s0.2-0.5,0.4-0.5h4.8v-4.6c0-0.5,0.4-0.9,0.9-0.9c0.5,0,0.8,0.3,0.8,0.9v12.6c0,8.4-1.5,12.9-8.5,15.5
		C94,83.3,93.8,82.8,94,82.7L94,82.7z M100,72.5c0.2-0.2,0.5,0.1,0.4,0.3c-1.1,1.9-2.5,3.2-4.4,3.7c-1,0.2-1.4-1.2-0.4-1.6
		C97.5,74.2,98.5,73.7,100,72.5L100,72.5z M105.9,55.1c0-0.5,0.3-0.9,0.9-0.9s0.9,0.3,0.9,0.9v4.6h3.2c0.6,0,1.1-0.3,1.5-0.3
		s0.7,0.3,0.7,0.7s-0.3,0.7-0.7,0.7s-0.8-0.3-1.4-0.3h-3.3v5.8h2.9c0.6,0,1.1-0.3,1.5-0.3s0.7,0.3,0.7,0.7s-0.3,0.7-0.7,0.7
		s-0.8-0.3-1.4-0.3h-2.9v6.2h4c0.7,0,1.1-0.3,1.5-0.3s0.7,0.3,0.7,0.7c0,0.4-0.3,0.7-0.7,0.7s-0.8-0.3-1.4-0.3h-4.1v7.8
		c0,0.5-0.3,0.8-0.9,0.8s-0.9-0.3-0.9-0.8L105.9,55.1L105.9,55.1z"/>
	<path class="st0" d="M127.6,82.7c3.1-4.5,3.2-10.1,3.2-18.4v-6.6c0-0.5,0.3-0.8,0.8-0.8s0.8,0.3,0.8,0.8v0.4h21.2
		c0.6,0,1-0.3,1.4-0.3s0.7,0.3,0.7,0.7s-0.3,0.7-0.7,0.7s-0.8-0.3-1.4-0.3h-21.2V65c0,8-0.1,13.8-4.4,18
		C127.8,83.4,127.4,83,127.6,82.7L127.6,82.7z M135.6,79.9v-2.8h-1.9c-0.2,0-0.4-0.2-0.4-0.4s0.2-0.4,0.4-0.4h1.9v-2.4h-2.1
		c-0.2,0-0.4-0.2-0.4-0.4s0.2-0.4,0.4-0.4h4.3c0.6,0,1-0.3,1.4-0.3c0.4,0,0.7,0.3,0.7,0.7s-0.3,0.7-0.7,0.7c-0.4,0-0.8-0.3-1.4-0.3
		h-0.8v2.4h0.3c0.6,0,1-0.3,1.4-0.3c0.4,0,0.7,0.3,0.7,0.7s-0.3,0.7-0.7,0.7c-0.4,0-0.8-0.3-1.4-0.3h-0.3v2.5
		c0.9-0.2,1.8-0.5,2.7-0.8c0.2-0.1,0.4,0.2,0.2,0.4c-1.8,1.3-4.3,2.2-6.9,2.4c-0.9,0.1-1-1.2-0.1-1.3
		C133.9,80.2,134.8,80,135.6,79.9L135.6,79.9z M133.6,60.8h7.9c0.6,0,1-0.3,1.4-0.3s0.7,0.3,0.7,0.7s-0.3,0.7-0.7,0.7
		c-0.4,0-0.7-0.2-1.2-0.3v21c0,0.4-0.3,0.7-0.7,0.7s-0.7-0.3-0.7-0.7V67.7h-4V70c1.3-0.2,2.4-0.4,3.3-0.6c0.3-0.1,0.4,0.3,0.2,0.4
		c-1.7,1.1-3.6,1.7-5.9,1.9c-1,0.1-1.1-1.3-0.2-1.3l1.2-0.1v-8.6h-1.2c-0.2,0-0.4-0.2-0.4-0.4S133.4,60.7,133.6,60.8L133.6,60.8z
		 M140.3,63.9v-2.3h-4v2.3H140.3z M140.3,66.9v-2.2h-4v2.2H140.3z M139.8,54.2c1.9,0.1,4.2,0.8,5.2,1.9c0.9,1-0.3,2.1-1.1,1.4
		c-1.5-1.2-2.8-2.3-4.2-2.9C139.4,54.5,139.5,54.2,139.8,54.2L139.8,54.2z M144.4,75.9c0-0.2,0.4-0.2,0.4,0c0.2,1.8-0.3,4-1.6,5.1
		c-0.7,0.6-1.7-0.4-0.9-1.1C143.5,78.8,144.1,77.3,144.4,75.9z M143,71.9h10.3c0.6,0,1-0.3,1.4-0.3s0.7,0.3,0.7,0.7
		s-0.3,0.7-0.7,0.7s-0.8-0.3-1.3-0.3h-10.3c-0.2,0-0.4-0.2-0.4-0.4S142.8,71.9,143,71.9L143,71.9z M143.5,62.4h4.9v-2
		c0-0.4,0.3-0.7,0.7-0.7s0.7,0.3,0.7,0.7v2h3.4c0.6,0,1-0.3,1.4-0.3s0.7,0.3,0.7,0.7s-0.3,0.7-0.7,0.7s-0.8-0.3-1.3-0.3h-3.4v1.9
		h3.2v-0.2c0-0.4,0.3-0.7,0.7-0.7s0.7,0.3,0.7,0.7v5.3c0,0.4-0.3,0.7-0.7,0.7s-0.7-0.3-0.7-0.7v-0.4h-7.8v0.5c0,0.4-0.3,0.7-0.7,0.7
		s-0.7-0.3-0.7-0.7v-5.4c0-0.4,0.3-0.7,0.7-0.7s0.7,0.3,0.7,0.7v0.2h3.1v-1.9h-4.9c-0.2,0-0.4-0.2-0.4-0.4S143.2,62.4,143.5,62.4
		L143.5,62.4z M146.9,69.1v-3.1h-1.7v3.1H146.9z M145.9,74.9c0-0.4,0.3-0.7,0.7-0.7s0.7,0.3,0.7,0.7v4.6c0,1.2,0.7,1.7,1.8,1.8
		c0.5,0,1.3,0,1.8,0c1.5-0.1,1.8-1.3,2-2.4c0-0.2,0.4-0.2,0.4,0c0.4,2.1-0.4,3.6-2.4,3.7c-0.5,0-1.3,0-1.9,0c-1.9-0.1-3.1-1.2-3.1-3
		L145.9,74.9L145.9,74.9z M148.4,73.3c1.3,0.6,2.6,2.2,2.9,3.6c0.2,0.9-1.2,1.3-1.5,0.3s-1-2.7-1.7-3.6
		C147.9,73.5,148.2,73.2,148.4,73.3L148.4,73.3z M150,69.1v-3.1h-1.8v3.1H150z M153,69.1v-3.1h-1.8v3.1H153z M152.7,75.6
		c1.6,0.6,3.1,2.4,3.5,4.1c0.2,0.9-1.1,1.4-1.5,0.3c-0.5-1.4-1.1-2.9-2.2-4.1C152.4,75.8,152.6,75.6,152.7,75.6L152.7,75.6z"/>
	<path class="st0" d="M169.9,82.7c3.1-4.5,3.2-9.6,3.2-16.8v-8.3c0-0.5,0.3-0.8,0.8-0.8s0.8,0.3,0.8,0.8V58h21.2
		c0.6,0,1-0.3,1.4-0.3s0.7,0.3,0.7,0.7s-0.3,0.7-0.7,0.7s-0.8-0.3-1.4-0.3h-21.2v7.7c0,7-0.2,12.2-4.4,16.5
		C170,83.4,169.7,83,169.9,82.7L169.9,82.7z M177.3,75.5c0.1-0.2,0.4-0.2,0.5,0c0.1,2.5-0.8,5.4-2.9,6.6c-1.1,0.6-1.8-0.7-1-1.3
		C175.7,79.3,176.7,77.7,177.3,75.5z M179.3,60.3c0.3-1.1,1.9-0.7,1.6,0.5c-0.7,3-2.9,6.3-5.4,7.6c-0.3,0.1-0.5-0.2-0.3-0.4
		C177.2,66,178.6,62.8,179.3,60.3L179.3,60.3z M177.9,67.6c0-0.5,0.4-0.8,0.8-0.8s0.8,0.3,0.8,0.8V73c0,0.5-0.3,0.8-0.8,0.8
		s-0.8-0.3-0.8-0.8V67.6z M179.9,75.1c0-0.5,0.3-0.8,0.8-0.8s0.8,0.3,0.8,0.8v2.8c0,2,0.8,2.8,3.2,3c1,0.1,3.4,0.1,4.3,0
		c2.2-0.2,2.9-1.3,3.2-3.5c0-0.3,0.4-0.2,0.5,0c0.7,3.1-1,4.9-3.6,5c-1.1,0.1-3.5,0.1-4.6,0c-3.2-0.2-4.7-1.6-4.7-4.3L179.9,75.1
		L179.9,75.1z M184.2,60.3c0.3-1.1,1.9-0.7,1.6,0.5c-0.7,3-2.9,6.3-5.4,7.6c-0.3,0.1-0.5-0.2-0.3-0.4C182,66,183.4,62.8,184.2,60.3
		L184.2,60.3z M182,54.2c1.9,0.1,3.8,0.7,4.8,1.7c1,1-0.3,2.2-1.1,1.4c-1.4-1.3-2.4-2-3.8-2.7C181.7,54.5,181.7,54.2,182,54.2
		L182,54.2z M182.8,67.4c0-0.5,0.4-0.8,0.8-0.8s0.8,0.3,0.8,0.8v4.2h5v-2.3h-3.9c-0.2,0-0.4-0.2-0.4-0.4s0.2-0.4,0.4-0.4h3.9v-2.2
		h-3.9c-0.2,0-0.4-0.2-0.4-0.4s0.2-0.4,0.4-0.4h3.9v-2.2H186c-0.2,0-0.4-0.2-0.4-0.4s0.2-0.4,0.4-0.4h3.5c0.6-0.8,1.1-1.5,1.6-2.3
		c0.5-1.1,2-0.3,1.5,0.6c-0.4,0.7-1.1,1.3-1.9,1.7h3.5c0.6,0,1-0.3,1.4-0.3s0.7,0.3,0.7,0.7c0,0.4-0.3,0.6-0.7,0.6s-0.8-0.2-1.3-0.2
		h-3.1v2.2h2.1c0.6,0,1-0.3,1.4-0.3s0.7,0.3,0.7,0.7s-0.3,0.7-0.7,0.7s-0.8-0.3-1.3-0.3h-2.2v2.2h2.1c0.6,0,1-0.3,1.4-0.3
		s0.7,0.3,0.7,0.7s-0.3,0.7-0.7,0.7s-0.8-0.3-1.3-0.3h-2.2v2.3h3.8c0.6,0,1-0.3,1.4-0.3s0.7,0.3,0.7,0.7s-0.3,0.7-0.7,0.7
		s-0.8-0.3-1.3-0.3h-10.4V73c0,0.5-0.3,0.8-0.8,0.8s-0.8-0.3-0.8-0.8L182.8,67.4L182.8,67.4z M184.8,74.1c1.9,0.4,4,1.4,4.9,3.1
		c0.5,0.9-0.7,1.9-1.3,1.1c-1.4-1.9-2.2-2.6-3.8-3.8C184.5,74.4,184.6,74.1,184.8,74.1z M193.1,75.1c2.3,1,4.2,2.7,5.1,5
		c0.4,1-1,1.8-1.6,0.7c-1.1-2-2.1-3.6-3.8-5.2C192.7,75.4,192.8,75,193.1,75.1L193.1,75.1z"/>
	<path class="st0" d="M213.2,61.5h4.1v-6.4c0-0.5,0.4-0.8,0.8-0.8s0.8,0.3,0.8,0.8v6.4h2.2c0.6,0,1-0.3,1.4-0.3s0.7,0.3,0.7,0.7
		c0,0.4-0.3,0.6-0.7,0.6s-0.8-0.2-1.3-0.2H219v5.9c1.2-0.7,2.3-1.4,3.5-2.3c0.3-0.3,0.7,0.1,0.4,0.4c-1.1,1.3-2.4,2.5-3.9,3.5v8.2
		c0,3.7-2.2,5.7-5.6,4.8c-0.3-0.1-0.3-0.5,0-0.5c3.2-0.2,4-1.6,4-4.9v-6.6c-1.1,0.6-2.4,1.1-3.8,1.4c-1.1,0.3-1.6-1.2-0.4-1.6
		c1.6-0.5,3-1,4.2-1.6v-6.8h-4.1c-0.2,0-0.4-0.2-0.4-0.4S213,61.5,213.2,61.5L213.2,61.5z M222.9,82.6c3-0.8,5.9-2.1,8.2-3.8
		c-1.5-1.3-2.8-2.8-3.5-4.5c-0.1-0.3,0.2-0.5,0.4-0.3c1.1,1.5,2.6,2.8,4.2,3.8c1.6-1.4,2.8-3,3.6-5h-8.7c-1.3,4.3-3.6,7.6-7.6,9.9
		c-0.3,0.2-0.6-0.2-0.4-0.4c4.3-3.7,6.2-7.5,7.1-13h-3.8c-0.2,0-0.4-0.2-0.4-0.4s0.2-0.4,0.4-0.4h3.9c0.1-0.9,0.2-1.9,0.3-2.9H224
		c-0.2,0-0.4-0.2-0.4-0.4c0-0.3,0.2-0.4,0.4-0.4h13.2c0.6,0,1-0.2,1.4-0.2s0.7,0.3,0.7,0.7c0,0.4-0.3,0.6-0.7,0.6s-0.8-0.2-1.3-0.2
		h-8.9c-0.1,1-0.1,1.9-0.3,2.9h10.2c0.6,0,1-0.3,1.4-0.3s0.7,0.3,0.7,0.7s-0.3,0.7-0.7,0.7s-0.8-0.3-1.3-0.3h-10.4
		c-0.1,0.9-0.3,1.8-0.6,2.7h8.9l0.1-0.3c0.3-1,1.8-0.6,1.5,0.5c-0.7,2.5-2.1,4.7-4.2,6.5c1.9,1.1,4.1,1.9,6.3,2.5
		c1.1,0.3,0.7,2-0.4,1.8c-2.5-0.6-5.1-1.7-7.2-3.2c-2.5,1.8-5.8,3-9.3,3.4C222.7,83.1,222.6,82.7,222.9,82.6L222.9,82.6z M223.3,58
		c4.7-0.5,11.1-1.7,14.6-3.3c1.1-0.5,1.8,1,0.8,1.5c-3.8,2-10.4,2.6-15.4,2.4C222.9,58.6,222.9,58.1,223.3,58L223.3,58z M225.4,59.5
		c1.4,0.7,2.7,1.8,3.2,3.4c0.4,1.1-1.1,1.7-1.6,0.6c-0.6-1.5-1.2-2.6-1.9-3.6C225,59.7,225.2,59.4,225.4,59.5z M229.9,59
		c1.3,0.8,2.5,2,2.9,3.7c0.3,1.2-1.3,1.6-1.6,0.5c-0.4-1.4-0.8-2.5-1.6-3.8C229.4,59.1,229.6,58.9,229.9,59z M236.7,58.7
		c0.4-1.1,1.9-0.7,1.6,0.5c-0.7,2.3-2,3.9-4,5c-0.2,0.1-0.4-0.1-0.3-0.3C235.4,62.1,236,60.6,236.7,58.7z"/>
	<path class="st0" d="M255,62.4c2.3,0.6,4.5,1.9,5.5,3.7c0.7,1.2-0.7,2.1-1.5,1.1c-1.2-1.6-2.7-3.2-4.3-4.3
		C254.6,62.7,254.7,62.3,255,62.4L255,62.4z M255.3,80.3c2.7-2.7,4.8-6.2,5.9-10.3c0.1-0.3,0.5-0.3,0.5,0.1c0,4.7-2.4,9.3-5.4,11.7
		C255.5,82.5,254.3,81.2,255.3,80.3L255.3,80.3z M257.3,55c2.3,0.6,4.5,2,5.5,3.7c0.7,1.2-0.7,2.1-1.5,1.1c-1.2-1.6-2.7-3.2-4.3-4.3
		C256.9,55.3,257,54.9,257.3,55z M262.6,64.9h9.2v-4.2c0-0.5,0.4-0.9,0.9-0.9s0.9,0.4,0.9,0.9v4.2h7c0.6,0,1.1-0.3,1.5-0.3
		c0.4,0,0.7,0.3,0.7,0.7c0,0.4-0.3,0.7-0.7,0.7c-0.5,0-0.9-0.3-1.5-0.3h-7.1v5.7h4.6V71c0-0.5,0.4-0.9,0.9-0.9s0.9,0.4,0.9,0.9v11.3
		c0,0.5-0.4,0.8-0.9,0.8s-0.9-0.3-0.9-0.8v-1.9h-10.8v2.1c0,0.5-0.4,0.8-0.9,0.8s-0.9-0.3-0.9-0.8V71c0-0.5,0.4-0.9,0.9-0.9
		s0.9,0.4,0.9,0.9v0.5h4.5v-5.7h-9.2c-0.3,0-0.5-0.2-0.5-0.5C262.1,65.1,262.3,64.9,262.6,64.9L262.6,64.9z M279.3,55.2
		c1.1-0.5,1.7,1,0.7,1.6c-4.4,2.2-10.1,3-15.2,3c-0.3,0-0.4-0.5,0-0.5C269.7,58.5,275,57.2,279.3,55.2z M278.1,79.5v-7.3h-10.8v7.3
		H278.1z"/>
	<path class="st0" d="M297.3,60.4h7.2v-1.1c0-0.5,0.4-0.8,0.8-0.8s0.8,0.3,0.8,0.8v1.1h5c0.6,0,1-0.3,1.4-0.3c0.4,0,0.7,0.3,0.7,0.7
		s-0.3,0.7-0.7,0.7c-0.4,0-0.8-0.3-1.4-0.3h-5V64h3.8v-0.3c0-0.5,0.3-0.8,0.8-0.8s0.8,0.3,0.8,0.8v8.9c0,0.4-0.3,0.8-0.8,0.8
		s-0.8-0.3-0.8-0.8v-0.4h-3.8v3h3.9c0.6,0,1-0.3,1.4-0.3s0.7,0.3,0.7,0.7s-0.3,0.7-0.7,0.7S310.6,76,310,76h-3.9v3.1
		c2.1-0.4,4.2-1,6-1.7c0.3-0.1,0.5,0.3,0.3,0.4c-3.6,2.6-9.5,3.7-14.4,3.8c-1.1,0-1.1-1.6-0.1-1.6c2.2-0.1,4.5-0.3,6.6-0.7V76h-5.4
		c-0.2,0-0.4-0.2-0.4-0.4s0.2-0.4,0.4-0.4h5.4v-3h-3.8v0.8c0,0.4-0.3,0.8-0.8,0.8s-0.8-0.3-0.8-0.8v-9.2c0-0.5,0.3-0.8,0.8-0.8
		s0.8,0.3,0.8,0.8V64h3.8v-2.8h-7.2c-0.2,0-0.4-0.2-0.4-0.4S297.1,60.3,297.3,60.4L297.3,60.4z M310.9,54.7c1-0.3,1.6,1,0.5,1.5
		c-3.1,1.4-9,2.1-13.2,2c-0.3,0-0.4-0.5,0-0.5C302.6,57.1,306.8,56.2,310.9,54.7z M304.5,67.7v-2.8h-3.8v2.8H304.5z M304.5,71.3
		v-2.8h-3.8v2.8H304.5z M309.9,67.7v-2.8h-3.8v2.8H309.9z M309.9,71.3v-2.8h-3.8v2.8H309.9z M309.3,82.6c5.2-4.4,6.2-10.8,6.5-17.9
		l0.1-2.1h-2.7c-0.2,0-0.4-0.2-0.4-0.4s0.2-0.4,0.4-0.4h2.8l0.3-6.8c0-1.1,1.7-1.1,1.6,0l-0.3,6.8h4l0-0.5c0-1.1,1.7-1.1,1.6,0
		l-0.4,15.2c-0.1,4-2.1,6.8-7.2,5.6c-0.4-0.1-0.3-0.5,0-0.5c4.2-0.1,5.5-1.8,5.6-5.8l0.4-13.2h-4l-0.1,2.9c-0.3,7-1.5,13.9-7.8,17.6
		C309.3,83.2,309.1,82.9,309.3,82.6L309.3,82.6z"/>
</g>
<g>
	<path class="st1" d="M358.4,41.2c-1.7,0-3.4,0-5.1,0c-4.5,0-9.1-0.1-13.6-0.1c-6.6,0-13.2-0.1-19.9-0.1c-7.9-0.1-15.8-0.1-23.7-0.2
		c-8.4-0.1-16.9-0.1-25.3-0.2c-8.2-0.1-16.3-0.1-24.5-0.2c-3.3,0-6.6,0-9.9-0.1c-2,0-7.5,1-8.7-1.1c-0.2,0.5-0.8,1-1.3,1
		s-1.1-0.4-1.3-0.9c-0.5,0.7-1.3,1.1-2.1,1c-1.3-0.1-2.3-1.5-3.1-2.4l-1.9,1.9c-0.1,0.1-0.2,0.2-0.3,0.3c-0.9,0.5-3.1,0.1-4,0.1
		c-6.6,0-13.1,0-19.6-0.9c-1.5-0.2-4.9-1-4.9-1c-0.2,1.1-3,2.3-4.7,2.9c1.7,0.6,4.5,1.8,4.7,2.9c0,0,3.4-0.8,4.9-1
		c6.5-0.9,13.1-0.9,19.6-0.9c1,0,3.2-0.4,4,0.1c0.1,0.1,0.2,0.2,0.3,0.3l1.9,1.9c0.8-0.9,1.8-2.3,3.1-2.4c0.8-0.1,1.7,0.3,2.1,1
		c0.2-0.5,0.8-1,1.3-0.9s1.1,0.4,1.3,1c1.2-2.1,6.6-1.1,8.7-1.1c3.3,0,6.6,0,9.9-0.1c8.2-0.1,16.3-0.1,24.5-0.2
		c8.4-0.1,16.9-0.1,25.3-0.2c7.9-0.1,15.8-0.1,23.7-0.2c6.6,0,13.2-0.1,19.9-0.1c4.5,0,9.1-0.1,13.6-0.1
		C355,41.2,356.7,41.2,358.4,41.2c-0.1,0-0.2,0-0.3,0C358.2,41.2,358.3,41.2,358.4,41.2z M197,41.2c-0.9,0-1.6,0.3-2.4,0.5
		c-0.9,0.3-1.8,0.6-2.6,0.8c-0.6,0.2-1.3,0.5-1.9,0.3c-0.3-0.1-0.5-0.2-0.6-0.5c0,0,0-0.4,0-0.4c-0.8-0.3-1.7-0.6-2.5-0.8l0,0l0,0
		c0.8-0.3,1.7-0.5,2.5-0.8c0,0,0-0.3,0-0.4c0.1-0.3,0.3-0.5,0.6-0.5c0.6-0.2,1.4,0.1,1.9,0.3c0.9,0.3,1.8,0.6,2.6,0.8
		C195.3,40.9,196.1,41.2,197,41.2C197,41.2,196.9,41.2,197,41.2C196.9,41.2,197,41.2,197,41.2z"/>
	<path class="st1" d="M10.3,41.2c-0.1,0-0.2,0-0.3,0c1.7,0,3.4,0,5.1,0c4.5,0,9.1,0.1,13.6,0.1c6.6,0,13.2,0.1,19.8,0.1
		c7.9,0.1,15.8,0.1,23.7,0.2c8.4,0.1,16.9,0.1,25.3,0.2c8.2,0.1,16.3,0.1,24.5,0.2c3.3,0,6.6,0,9.9,0.1c2,0,7.5-1,8.7,1.1
		c0.2-0.5,0.8-1,1.3-1s1.1,0.4,1.3,0.9c0.5-0.7,1.3-1.1,2.1-1c1.3,0.1,2.3,1.5,3.1,2.4l1.9-1.9c0.1-0.1,0.2-0.2,0.3-0.3
		c0.9-0.5,3.1-0.1,4-0.1c6.6,0,13.1,0,19.6,0.9c1.5,0.2,4.9,1,4.9,1c0.2-1.1,3-2.3,4.7-2.9c-1.7-0.6-4.5-1.8-4.7-2.9
		c0,0-3.4,0.8-4.9,1c-6.5,0.9-13.1,0.9-19.6,0.9c-1,0-3.2,0.4-4-0.1c-0.1-0.1-0.2-0.2-0.3-0.3l-1.9-1.9c-0.8,0.9-1.8,2.3-3.1,2.4
		c-0.8,0.1-1.7-0.3-2.1-1c-0.2,0.5-0.8,1-1.3,0.9s-1.1-0.4-1.3-1c-1.2,2.1-6.6,1.1-8.7,1.1c-3.3,0-6.6,0-9.9,0.1
		c-8.2,0.1-16.3,0.1-24.5,0.2c-8.4,0.1-16.9,0.1-25.3,0.2c-7.9,0.1-15.8,0.1-23.7,0.2C42,40.9,35.3,41,28.7,41
		c-4.5,0-9.1,0.1-13.6,0.1c-1.7,0-3.4,0-5.1,0C10.1,41.2,10.2,41.2,10.3,41.2L10.3,41.2z M171.5,41.2
		C171.5,41.2,171.4,41.2,171.5,41.2c0.8,0,1.6-0.3,2.4-0.5c0.9-0.3,1.8-0.6,2.6-0.8c0.6-0.2,1.3-0.5,1.9-0.3
		c0.3,0.1,0.5,0.2,0.6,0.5c0,0,0,0.4,0,0.4c0.8,0.3,1.7,0.6,2.5,0.8l0,0l0,0c-0.8,0.3-1.7,0.5-2.5,0.8c0,0,0,0.3,0,0.4
		c-0.1,0.3-0.3,0.5-0.6,0.5c-0.6,0.2-1.4-0.1-1.9-0.3c-0.9-0.3-1.8-0.6-2.6-0.8C173.1,41.4,172.3,41.2,171.5,41.2
		C171.4,41.2,171.5,41.2,171.5,41.2z"/>
</g>
</svg>
