<?xml version="1.0" encoding="utf-8"?>
<!-- Generator: Adobe Illustrator 26.5.1, SVG Export Plug-In . SVG Version: 6.00 Build 0)  -->
<svg version="1.1" id="圖層_1" xmlns="http://www.w3.org/2000/svg" xmlns:xlink="http://www.w3.org/1999/xlink" x="0px" y="0px"
	 viewBox="0 0 50.2 57.1" style="enable-background:new 0 0 50.2 57.1;" xml:space="preserve">
<style type="text/css">
	.st0{fill:#FFFFFF;}
	.st1{fill:#AD9F79;}
</style>
<g id="_圖層_3_拷貝_4">
	<g>
		<path class="st0" d="M25.1,15.5c-2.6,0-4.8,2.1-4.8,4.8s2.1,4.8,4.8,4.8s4.8-2.1,4.8-4.8S27.7,15.5,25.1,15.5z M25.1,22
			c-1,0-1.8-0.8-1.8-1.8s0.8-1.8,1.8-1.8s1.8,0.8,1.8,1.8S26.1,22,25.1,22z"/>
		<path class="st0" d="M45.9,25.3c-2.5-1.4-5.1-2-7.8-2c-5.3,0-9.8,1.9-13,5.4c-3.2-3.5-7.7-5.4-13-5.4c-2.7,0-5.3,0.7-7.8,2
			c-0.6,0.3-0.9,1-0.7,1.7s0.8,1.1,1.4,1.1c5.4,0,11.3,4.8,15.1,12.3c0.9,1.8,1.6,3.7,2.2,5.7c0.6,2,1,4,1.3,6.2
			c0.1,0.8,0.7,1.3,1.5,1.3s1.4-0.6,1.5-1.3c0.3-2.1,0.7-4.2,1.3-6.2c0.6-2,1.4-3.9,2.2-5.7c3.7-7.4,9.6-12.3,15.1-12.3
			c0.7,0,1.3-0.5,1.5-1.1S46.5,25.6,45.9,25.3L45.9,25.3z M27.5,39.1c-0.9,1.8-1.7,3.8-2.4,5.9c-0.6-2-1.4-4-2.4-5.9
			c-3.1-6.2-7.5-10.7-12.2-12.7c0.5-0.1,1-0.1,1.5-0.1c5.1,0,9.1,1.9,11.8,5.7c0.6,0.8,1.9,0.8,2.4,0c2.7-3.8,6.7-5.7,11.8-5.7
			c0.5,0,1,0,1.5,0.1C34.9,28.4,30.5,32.9,27.5,39.1z"/>
		<path class="st0" d="M18,5.5h0.2V13c0,0.8,0.7,1.5,1.5,1.5h0.9c0.8,0,1.5-0.7,1.5-1.5v-0.4c0.6,1.4,1.9,2,3.2,2
			c0.8,0,1.5-0.2,2.1-0.7c0.3,0.3,0.7,0.6,1.2,0.6h0.9c0.8,0,1.5-0.7,1.5-1.5v-2.9c1.7-0.3,2.9-1.6,2.9-3.4V4.8
			c0-1.8-1.5-3.2-3.5-3.2h-1.7c-0.5,0-0.9,0.2-1.2,0.6c-0.6-0.5-1.4-0.7-2.1-0.7c-0.7,0-1.4,0.2-2,0.6c-0.3-0.3-0.6-0.4-1-0.4H18
			c-0.8,0-1.5,0.7-1.5,1.5V4C16.5,4.8,17.1,5.5,18,5.5L18,5.5z"/>
	</g>
</g>
<g id="_圖層_3_拷貝_3">
	<g>
		<g>
			<circle class="st1" cx="25.1" cy="20.3" r="3.3"/>
			<path class="st1" d="M38.1,24.8c-5.2,0-9.8,1.8-13,6.3c-3.2-4.5-7.9-6.3-13-6.3c-2.5,0-4.9,0.7-7.1,1.9c6.1,0,12.4,5.1,16.4,13.1
				c0.9,1.8,1.7,3.8,2.4,5.9c0.6,2.2,1.1,4.3,1.4,6.4c0.3-2.1,0.7-4.2,1.4-6.4c0.6-2.1,1.4-4.1,2.4-5.9c4-8,10.3-13.1,16.4-13.1
				C43,25.4,40.6,24.8,38.1,24.8z"/>
		</g>
		<g>
			<path class="st1" d="M22.2,3.1V4h-1.7v9h-0.9V4H18V3.1H22.2L22.2,3.1z"/>
			<path class="st1" d="M25.2,3c1,0,2,0.5,2,2.4v5.5c0,1.6-0.9,2.2-2,2.2s-2-0.6-2-2.2V5.4C23.1,3.5,24.1,3,25.2,3z M25.2,12.3
				c0.5,0,1.1-0.3,1.1-1.5V5.5c0-1.3-0.5-1.6-1.1-1.6S24,4.2,24,5.5v5.2C24,11.9,24.6,12.3,25.2,12.3z"/>
			<path class="st1" d="M32.2,4.8v1.9c0,1.2-0.8,1.9-2,1.9h-0.9V13h-0.9V3.1h1.7C31.3,3.1,32.2,3.7,32.2,4.8z M30.1,7.8
				c0.9,0,1.3-0.3,1.3-1.3V5.1c0-1-0.4-1.1-1.3-1.1h-0.7v3.8C29.3,7.8,30.1,7.8,30.1,7.8z"/>
		</g>
	</g>
</g>
</svg>
